<?xml version="1.0" encoding="utf-8"?>
<!-- Generator: Adobe Illustrator 28.1.0, SVG Export Plug-In . SVG Version: 6.00 Build 0)  -->
<svg version="1.1" id="parrot_x5F_boat" xmlns="http://www.w3.org/2000/svg" xmlns:xlink="http://www.w3.org/1999/xlink" x="0px"
	 y="0px" viewBox="0 0 389.7 400.5" style="enable-background:new 0 0 389.7 400.5;" xml:space="preserve">
<style type="text/css">
	.st0{fill:#2EACD8;}
	.st1{fill:#6B001C;}
	.st2{fill:#C91111;}
	.st3{fill:#00508C;}
	.st4{fill:#841600;}
	.st5{fill:#FF76AE;}
	.st6{fill:#FAC63C;}
	.st7{fill:#6B4C00;}
	.st8{fill:#1F75B4;}
	.st9{fill:#262626;}
	.st10{fill:#FFFFFF;}
	.st11{fill:#7B332B;}
	.st12{fill:#4F2726;}
	.st13{fill:#3F0D00;}
</style>
<g id="parrot_x5F_tail">
	<path class="st0" d="M182.9,248.4c-0.3-2-10.9-12.3-12.3-13.8l-3.4-3.5c-2.6-2.7-6.5-3.7-10.1-2.6l-12.7,3.8
		c-2.9,0.9-5.2,2.9-6.4,5.7c-0.3,0.7-0.5,1.4-0.6,2.1L182.9,248.4z"/>
	<path class="st1" d="M138.7,240C138.7,239.9,138.7,239.9,138.7,240c1-2.4,3-4.2,5.5-4.9l13.2-5.6c3.1-0.9,5.9,1.7,8.2,4l3.4,3.5
		c0.8,0.9,11.1,10.3,11.5,11.4h3.2c-0.5-1.9-11.1-12-12.5-13.4l-3.4-3.5c-3-3.1-7-6.1-11.2-4.8l-13.2,5.6c-3.3,1-6,3.3-7.3,6.5
		c-0.2,0.4-0.3,0.9-0.5,1.3h3.1V240z"/>
</g>
<g id="parrot_x5F_wing2">
	<path class="st2" d="M105.2,161.6c0,0-11.5,12-10.1,33s8.3,36.7,8.3,36.7l11-4.4c0,0-13-17.3-12-39.2S103.5,164.4,105.2,161.6
		L105.2,161.6z"/>
	<polygon class="st0" points="96,209.1 103.7,206 114.4,226.8 103.4,231.3 	"/>
	<path class="st3" d="M95,188.3l6.5,2.1l2.4,13l2.3,6.8c0,0-2.3-3.1-5.6-1.2c-3.3,1.9-3.3,2-3.3,2S94.4,193.1,95,188.3L95,188.3z"/>
	<path class="st1" d="M102.4,232.7c-0.6,0-1.1-0.3-1.4-0.9c-0.3-0.6-7-16.2-8.4-37.2c-1.4-21.4,11.9-36.8,12.5-37.4
		c0.5-0.6,1.4-0.7,2-0.2s0.8,1.3,0.4,2c-1.7,2.7-3.6,7.4-4.5,28.6c-1,21.1,11.6,38.1,11.7,38.3c0.3,0.4,0.4,0.9,0.2,1.3
		c-0.1,0.5-0.4,0.8-0.9,1l-11,4.4C102.8,232.7,102.6,232.7,102.4,232.7L102.4,232.7z M101.6,167.9c-3.3,6.3-6.8,15.7-6.1,26.5
		c1.1,17,6,30.6,7.6,34.9l7.9-3.2c-3.2-4.8-12-20-11.2-38.6C100.4,178.4,101,172.2,101.6,167.9L101.6,167.9z"/>
</g>
<g id="parrot_x5F_body">
	<path class="st2" d="M109.1,216.6l4.4,8.6c0.5,1,1.4,1.9,2.5,2.3l20.8,8.7c1.5,0.6,3.1,0.5,4.5-0.3l13.8-8.2c1.8-1,2.7-3,2.4-5.1
		l-3.1-19.8l-6.5-38.2c-0.1-0.8-0.5-1.6-1-2.3l-9-11.1c-1.1-1.4-2.9-2.1-4.7-1.8l-20.3,3.3c0,0-8.9,5.2-10.9,18.2
		c-0.6,3.9-0.8,8.3-0.9,12.5C101.1,195.1,103.9,206.4,109.1,216.6L109.1,216.6z"/>
	<path class="st4" d="M139.2,238.7c-0.2,0-0.4,0-0.6-0.1l-24.8-10.4c-0.3-0.1-0.6-0.4-0.8-0.7l-5.3-10.2l0,0
		c-5.4-10.5-8.2-22.1-8.1-33.7c0.1-4.9,0.3-9.2,0.9-12.8c2-13.5,11.2-19,11.6-19.2c0.2-0.1,0.3-0.2,0.5-0.2l23.2-3.7
		c0.5-0.1,1.1,0.1,1.4,0.5l11.6,14.3c0.2,0.2,0.3,0.4,0.3,0.7l6.8,39.4l3.6,23.1c0.1,0.6-0.2,1.2-0.7,1.5l-18.9,11.1
		C139.7,238.6,139.4,238.7,139.2,238.7L139.2,238.7z M115.5,225.6l23.6,9.9l17.4-10.2l-3.4-22.1l-6.7-39l-10.9-13.4l-22,3.5
		c-1.3,0.9-8.3,6-9.9,17c-0.5,3.4-0.8,7.6-0.8,12.3c-0.1,11.1,2.6,22.3,7.7,32.3L115.5,225.6L115.5,225.6z"/>
</g>
<g id="parrot_x5F_wing1">
	<path class="st2" d="M129.3,144.3c0,0-9.4,37.2,5.1,57.1s18.8,22.1,18.8,22.1l6.8-1.2l5.8,19.2c0,0,7.8-14.2,7.6-19.3
		c0,0,10.3,15.9,12.9,15.6c2.6-0.2,3.4-23.7-3.4-51.2c-6.7-27.5-48.2-45.4-48.2-45.4L129.3,144.3L129.3,144.3z"/>
	<path class="st0" d="M137,203.4l45.4-13.6c0.5-0.2,1.1,0.1,1.2,0.7c1.6,5.1,6.6,29.5,3.2,47.3c-0.2,0.5-12.2-12.5-12.2-12.5
		c-0.4-0.1-0.8,0-1.1,0.2l-7.2,14.5c-1.1,0.4-5.4-16-5.4-16c-0.1-0.4-0.4-0.6-0.8-0.7c0,0-6,0.1-8-0.1c-0.3,0-15.7-18.2-15.7-18.2
		C136.1,204.3,136.3,203.6,137,203.4L137,203.4z"/>
	<path class="st3" d="M127,185.7c0,0,8.4,10.6,14.2,7.1c5.9-3.4,2.7-15.7,18-7.9c15.2,7.8,11.7-9.4,11.7-9.4l6.5-1.2l7.7,22.2
		c0,0-9.5,0-9,8.2c0.5,8.1-9.7-4.9-17.4,1.2c-7.8,6.1-8.4,7.1-19.1,3.2C139.6,209.2,127.6,188.9,127,185.7L127,185.7z"/>
	<path class="st1" d="M183.8,186.3c-5.5-22.4-32.6-38.3-44.1-44.2c-0.7,0.9-1.4,1.9-2.1,2.9c10.7,5.5,37.6,21.1,42.8,42.1
		c6.2,25.1,6.7,44.7,5.3,48.4c-3-0.5-10.2-14-12.3-15.9c-0.1,0-0.5,0-0.6,0.5c-0.6,2.9-3.7,14.6-5.8,18c-0.3,0.5-1.1,0.4-1.3-0.2
		l-4.8-16c-0.3-0.9-1.1-1.4-2-1.2c0,0-4.6,1.5-6.1,1.1c-1.7-0.4-13.9-15.7-17.2-21.4c-3.7-6.4-8.4-18.7-9.3-26.5
		c-0.4,0.3-0.9,5.4-1.5,7.1c-0.2,0.5,5,15.1,8.8,21.1c2.3,3.7,15.4,22.7,18,23c0.3,0,3.8-0.4,5.5-0.6c0.5-0.1,1.1,0.2,1.2,0.8
		c0,0,5.5,18.1,6,17.9c8-3.3,7.1-12.1,9.3-17.3c0.2-0.4,0.7-0.5,1-0.2c3.6,3.4,8.3,14.4,12.8,13C190.2,234.8,190.1,212,183.8,186.3z
		"/>
</g>
<g id="parrot_x5F_head">
	<path class="st4" d="M175.3,165.3c-10.9,0-28.3-6.4-34.9-15.6c-4.2,5.4-12.5,13.6-23.9,13.6c-1.4,0-2.8-0.1-4.2-0.4
		c-14.4-2.6-21.8-13.6-19.6-29.6c1.2-8.9,11.2-16.1,17.7-19.9c-9.8-5.6-20.8-16.6-15-31.8c0.1-0.3,0.1-0.8,0.1-1.3
		c0-1.4,0-4.2,2.9-5.6l19.8-9.9L134.5,48h1.2c0,0,1,0,2.6,0c16.3,0,19.1,3.2,20,4.2c4.3,4.8,8.1,35.5,7,54.6c4.9-0.8,13.5-2,20.6-2
		c3.3,0,13.5,0,13.7,6.6c0,2.1-0.8,4-2.4,5.6c-2.9,2.9-8.4,4.8-14.2,5.9c4.6,1.6,8.7,3.7,10.7,6.6c1.4,1.9,1.8,4.1,1.2,6.3
		c-1.6,6.5-11.4,6.5-14.6,6.5c-1.9,0-3.8-0.1-5.8-0.3c6.6,4.7,13.1,10.7,12.8,15.8c-0.1,1.9-1.1,4.6-5.1,6.3
		C180.5,164.9,178.1,165.3,175.3,165.3L175.3,165.3z"/>
	<path class="st2" d="M99.7,77.4l20.2-10.1L135.8,51c0,0,16.9-0.6,20.3,3.2c3.4,3.8,8,36.9,6,56.2c0,0,34.4-6.6,34.6,1.1
		c0.1,7.3-17.4,9.5-27.2,10.2c-0.7,0-0.7,1-0.1,1.1c9.1,1.5,24.5,5.2,22.7,12.3c-1.8,7-23.5,3.4-29.6,2.3c-0.3-0.1-0.4,0.3-0.2,0.5
		c6.3,3.6,31,18.5,18.9,23.6c-9.7,4.1-37.8-5.6-40.4-17.6c0,0-10.9,19.3-28.1,16.2c-13.3-2.4-19-12.3-17.2-26.2
		c1.5-11.3,21.4-20.4,21.4-20.4S90.3,103,98.1,82.8C98.9,80.7,97.7,78.4,99.7,77.4z"/>
</g>
<g id="parrot_x5F_beak">
	<g>
		<ellipse id="parrot_x5F_cheek" class="st5" cx="140.8" cy="116.6" rx="11.1" ry="5"/>
		<path class="st6" d="M91,146.6c-2.3,5-0.4,10.4-0.4,10.4c-22.3-15.2-19.2-35-14.9-46.2c2.8-7.2,8.5-13,15.8-15.4
			c16.5-5.5,28.4,12.7,28.4,12.7s10.4-3.6,15.7,5.5s1.5,26.1-6.9,32.5c-7,5.3-23,5.5-29.9,4.4c-1.6-0.2-3.1-0.8-4.4-1.7L91,146.6
			L91,146.6z"/>
	</g>
	<path class="st7" d="M90.5,158.2c-0.6,0-1.1-0.3-1.3-0.9c-2.9-7.4-0.8-16.8,13.7-19.3c8.4-1.4,22.7-4.8,21.9-22
		c0-0.8,0.6-1.4,1.3-1.4c0.8,0,1.4,0.6,1.4,1.3c0.8,20.2-16.9,23.2-24.4,24.9c-10.8,2.3-13.8,9.6-11.5,15.6
		C92.1,157,91.9,157.9,90.5,158.2L90.5,158.2z"/>
	<g>
		<path class="st7" d="M95,123.9c0,0.6-0.6,1-1.1,0.9c-3.1-0.4-5-1.5-5.8-3.4c-1.4-3.6,2.5-8.7,4.2-10.6c0.4-0.4,1-0.5,1.4-0.1l0,0
			c0.4,0.4,0.4,1,0.1,1.4c-1.7,2-4.8,6.2-3.8,8.6c0.5,1.3,2.4,1.9,4.2,2.1C94.6,122.9,95,123.4,95,123.9L95,123.9z"/>
	</g>
</g>
<g id="parrot_x5F_hat">
	<path class="st8" d="M156.5,38.9c0,0-8.7-12.3-2.2-19.3l5.6,6.2l-3.4-9.6c0,0,13.1-13.5,23.7-13.6c0,0,0.9,13.8-4.1,25l-8.6,2.6
		l8.6,1.1c0,0-2,8.2-18.2,8.4L156.5,38.9L156.5,38.9z"/>
	<path class="st9" d="M174.8,37.2c-3.3,1.4-8.5,1.7-11-0.7c-3.6-3.6-5.8-7.1-10.3-11.4C136.2,8,114.7-1.6,94.4,17.3
		C80.7,30,75.2,47.3,76.6,65.4c0,0.2,0,0.4,0,0.7c0,2.7-0.4,5.1-1.5,7.1c-1.6,2.8-5,4.4-8.1,3c-0.4-0.2-0.8-0.3-1.2-0.6
		c-6.9-4.2-15.9,1.8-13.7,9.6c0.5,1.9,1.7,4,3.9,6c4.6,4.4,8.4,7,11.3,8.5c3.1,1.6,6.8,1.3,9.6-0.9c4.8-3.7,18.1-9.1,22.3-10.4
		c1.4-0.4,15.6-3.9,18.1-6c5.6-4.7,7.4-11.4,14.8-19.4c11-11.9,19.2-7.4,21.5-6c2.1,1.3,3.6,3.4,4.1,5.8l2,9.8
		c1.1,5.4,6.7,8.6,11.9,6.7c1.9-0.7,3.8-1.8,6.7-3.7c0.2-0.1,0.4-0.3,0.6-0.5c1.1-1.1,5.2-5.9,9.5-16.5c4.1-10.1,1.5-16.5,0.4-18.6
		c-0.1-0.1-0.1-0.2-0.2-0.3C188.1,38.7,183.7,33.5,174.8,37.2L174.8,37.2z"/>
	<path class="st10" d="M123.5,49.1c-1.4-0.4-15-4.4-16.9-5.1c-0.7-0.9-1.9-2.4-3.2-2.9c-2-0.5-2,2.2-1.7,3.5c0,0.4,0,0.6-0.4,0.6
		s-1,0.1-1.5,0.2c-2.1,0.6-1.7,3,0.5,2.9c2.1,0.1,4.2-1.1,5.8-1.9c1.6,0.5,16.7,4.7,18,5.3c0.4,1.1,1,4.3,2.3,4.4
		c1.1-0.3,0.4-3.1,1.1-3.9c0.6-0.9,2.1-0.8,2.8-1.3c0.4-0.4,0.4-1.2,0.3-1.7c-0.1-0.5-0.5-0.8-1-0.8
		C127.6,48.5,124.7,49.1,123.5,49.1L123.5,49.1L123.5,49.1z"/>
	<path class="st10" d="M105.7,51.5c2.2-1.2,11.7-7.2,14.6-9.2c0.2-0.2,0.4-0.3,0.6-0.6c0.6-1.2,1.4-3.3,3-3.5c1-0.1,1.5,0.9,1.8,1.9
		c0.1,0.6,0.3,1.5,1.1,1.5c0.7,0,1.4-0.1,2.1,0.2c0.8,0.3,1.1,1.1,0.7,1.8c-0.6,1-2.1,1.2-3.2,1.2s-2.1-0.2-3.1-0.4
		c-0.4-0.1-0.9-0.2-1.2-0.1c-2.7,1.5-13.1,8-15.6,9.6c-0.4,0.2-0.4,0.7-0.4,1.2c-0.1,1.1,0,3.4-1,3.8c-1.3,0-1.1-3.2-2.8-3.5
		c-0.7-0.2-1.6-0.1-2.2-0.4c-0.7-0.4-1-1.5-0.5-2.1c0.3-0.4,0.9-0.5,1.4-0.6C102.6,51.9,104.3,51.8,105.7,51.5L105.7,51.5
		L105.7,51.5z"/>
	<path class="st10" d="M122.3,28.5c0.6-4.8-3.4-9.1-8.9-9.7s-10.5,2.8-11.1,7.6c-0.4,2.9,0.9,5.6,3.3,7.5c-0.5,1.7-0.9,3.7,0.5,3.9
		c0.6,0.1,1.1-0.2,1.6-0.2c0.4,0,0.7,0.6,0.9,0.9c0.4,0.5,1,1,1.7,1.1c1.1,0.1,1.9-1,2.2-1.8c0.2-0.3,0.2-0.5,0.4-0.3
		c0.3,0.4,1.1,2.1,2,1.5c0.7-0.8,0.8-2.1,0.7-3.3C119.1,34.7,121.9,31.9,122.3,28.5L122.3,28.5z M108.3,31.5
		c-1.4-0.1-2.3-1.5-2.1-2.9s1.4-2.6,2.8-2.4s2.3,1.5,2.1,2.9S109.7,31.7,108.3,31.5z M110.3,35.3c-0.7-0.4-0.8-1.3-0.5-1.9
		c0.3-0.5,1.2-1,1.9-0.7l0,0C112.6,33.5,111.4,35.8,110.3,35.3z M114.7,32.2c-1.4-0.1-2.3-1.5-2.1-2.9s1.4-2.6,2.8-2.4
		s2.3,1.5,2.1,2.9S116,32.3,114.7,32.2z"/>
</g>
<g id="boat">
	<path id="boat_x5F_hull" class="st11" d="M190.1,259.8c-14.3-5.7-110.7-30.3-124.3-34.6c-0.6-0.1-1.2,0.1-1.2,0.8
		c-0.2,9.8,3.3,34.9,7.7,49.3c11.1,38.5,35.7,86.8,84.6,95.3c35.4,4.2,100,3,138.3,3.9c1.4,0,2.5-0.3,3.2-1.6
		c2.4-6.6,4.8-11.4,6.9-18.1c1.5-6.6,2.9-11.4,9.2-14.9c14.5-7.2,32.7-32.7,37.5-56.3c2-10.6,4-23.2,5.6-33.1c0.2-1.8,0.7-3,0.6-4.2
		c0-0.1,0-0.1-0.1-0.1c-0.4-0.4-1.8-0.5-3.9-0.5c-22.5,0.9-61.2,4.5-82.5,6.2c-2.1,0.1-4.9,0.4-5.6,2.7c-4.1,9-20.9,46.8-25.8,57.5
		c-0.5,1-0.9,1.7-2.1,2.3c-1.5,0.7-3.3,1-5,1.3c-2.3,0.4-5,0.9-7.2,1.3c-1.8,0.3-3.6,0.7-5.3,0.4c-1.9-0.4-3.2-1.7-4.6-3
		c-1.6-1.5-3.1-3-4.7-4.4c-1.9-1.9-3.7-3.5-5.5-5.2c-1.3-1.3-2.8-2.5-3.7-4.2c-0.8-1.4-1.2-2.9-1.6-4.5
		C197.1,284.4,193.3,268.6,190.1,259.8L190.1,259.8L190.1,259.8z"/>
	<g id="mast">
		<path class="st12" d="M357.6,233.4l-101.7,9.3c0,0-4.1,61-28.5,69.7c0,0-4.2-0.2-9.1-3.1l11.1-265.9l-5.2-4.1l-18.8,252
			c-1.2-3.8-2-8.4-2.4-13.7c-2.3-34-2.9-27.3-2.9-27.3L13,201.5c0,0-7-3.2-8.1,3.5c-1.2,6.7,6.4,8.1,6.4,8.1L185,266.6
			c0,0,13.1,56.6,37.2,60.4s37.2-30.2,37.2-30.2l10.5-36l91.2-6.4C361.1,254.4,365.2,246.8,357.6,233.4L357.6,233.4z"/>
		<path class="st12" d="M225.9,327.6c-1.2,0-2.5-0.1-3.7-0.3c-12.6-2-22.1-18.4-27.9-31.8c-5.9-13.7-9.1-27.1-9.5-28.7L11.2,213.4
			c0,0-7.8-1.6-6.6-8.4c0.3-1.9,1.2-3.2,2.5-3.9c2.5-1.3,5.9,0.2,6.1,0.2L200,250c0.1-0.2,0.2-0.5,0.4-0.5l0,0c0.4,0,1.1,0,3,28.1
			c0.3,4.4,1,8.5,2,12.2L224,39.3c0-0.1,0.1-0.2,0.2-0.2s0.2,0,0.3,0l5.2,4.1c0.1,0.1,0.1,0.1,0.1,0.2l-11.1,265.7
			c4.4,2.6,8.3,3,8.8,3c23.9-8.6,28.2-68.9,28.2-69.5c0-0.1,0.1-0.2,0.3-0.3l101.7-9.3c0.1,0,0.2,0,0.3,0.1
			c7.5,13.4,3.7,20.9,3.5,21.2c0,0.1-0.1,0.1-0.2,0.1l-91,6.4l-10.4,35.8c0,0.1-3.4,8.6-9.6,16.6
			C242.8,322.7,234.5,327.6,225.9,327.6L225.9,327.6z M9.5,201c-0.7,0-1.5,0.1-2.2,0.5c-1.2,0.6-1.9,1.8-2.2,3.5
			c-1.1,6.3,5.9,7.7,6.2,7.8l173.8,53.5c0.1,0,0.2,0.1,0.2,0.2c0.1,0.6,13.3,56.5,37,60.2c23.6,3.7,36.8-29.7,36.9-30l10.5-36
			c0-0.1,0.1-0.2,0.2-0.2l91.1-6.4c0.5-1.1,3.3-8.4-3.5-20.4L256.2,243c-0.1,2-1.3,16.3-5.1,31.4c-3.7,15-10.8,33.8-23.6,38.3h-0.1
			c-0.2,0-4.3-0.2-9.2-3.2c-0.1,0-0.1-0.1-0.1-0.2l11.1-265.8l-4.7-3.7l-18.8,251.4c0,0.1-0.1,0.2-0.2,0.3c-0.1,0-0.3-0.1-0.3-0.2
			c-1.3-4.1-2.1-8.7-2.4-13.8c-1.4-19.8-2.1-25.5-2.5-27.1l0,0c-0.1,0-0.1,0.1-0.2,0L13,201.8C12.9,201.7,11.3,201,9.5,201L9.5,201z
			"/>
	</g>
	<path id="flag" d="M224,24.2c-4.1,1.9-4.6,6-4.7,10.1c-0.5,16.3-1.7,52.9-2.2,67c-0.1,6.3-0.4,8.4,7,4.7c3.4-1.6,8.2-3.9,13.7-6.6
		c6.1-3,13-6.3,19-9.2c6.8-3.1,10.5-5.5,15.8-7.1c3.3-1.1,6.9,0.6,10.3,3.2c3.9,2.9,9,7.3,12.8,10.3c4.5,3.6,7.6,5.3,12.3,2.5
		c17.9-9.7,60-32.6,75.8-41.4c2.4-1.5,1.9-1.8-1.9-1.9c-15.2-0.1-35,0-51.2,0c-3.6,0-7.1,0-10.5,0c-4.9,0-7.8,0-9.3-2.2
		c-1-1.3-1.3-2.9-1.6-4.6c-0.8-5.1-1-11.2-1.5-16.3c-0.2-3-0.4-5.3-0.6-6.8c-0.3-1.7-0.3-2.5-1.4-3.3c-12.7-6.3-41.9-4.4-58-2.7
		c-7.3,1-17.2,1.4-23.5,4.1L224,24.2L224,24.2z"/>
	<path id="boat_x5F_steps" class="st12" d="M192.3,291.2L192.3,291.2c-31.9-0.2-63.5-8.8-84.3-16c-22.6-7.8-37.5-15.4-38.1-15.8
		c-1.9-1-2.7-3.4-1.7-5.3c1-2,3.4-2.7,5.3-1.7c0.6,0.3,59.9,30.5,118.8,30.9c2.2,0,3.9,1.8,3.9,4
		C196.2,289.4,194.4,291.2,192.3,291.2L192.3,291.2z M263.4,325.5c-3.4,0-6.8,0-10.3-0.1c-24.9-0.6-52.3-3.4-81.4-8.4
		c-49.5-8.4-87.4-20.2-87.7-20.3c-2.1-0.7-3.2-2.9-2.6-5s2.9-3.2,5-2.6c0.4,0.1,37.8,11.8,86.8,20.1c45,7.6,109.2,13.9,159.7,0.5
		c2.1-0.6,4.3,0.7,4.9,2.8s-0.7,4.3-2.8,4.9C314.5,322.7,290.5,325.5,263.4,325.5L263.4,325.5z M279.4,294.5
		c-14.7,0-22.7-2.5-23.4-2.7c-2.1-0.7-3.2-2.9-2.6-5c0.7-2.1,2.9-3.2,5-2.6c0.4,0.1,31,9.2,85.3-10.5c2.1-0.8,4.3,0.3,5.1,2.4
		c0.8,2.1-0.3,4.3-2.4,5.1C317.2,291.9,294.7,294.5,279.4,294.5L279.4,294.5z M251.8,355.5c-41.5,0-74.8-4.6-97.7-9.2
		c-34.1-6.9-52.6-15-53.4-15.4c-2-0.9-2.9-3.2-2-5.2s3.1-2.9,5.1-2c0.3,0.1,18.8,8.2,52.1,14.9c30.8,6.2,81,12.4,144.9,6.9
		c2.1-0.2,4,1.4,4.2,3.6s-1.4,4.1-3.5,4.3C283.9,354.9,267.3,355.5,251.8,355.5L251.8,355.5z"/>
	<g id="jolly_x5F_roger">
		<path class="st10" d="M259.5,55.9L259.5,55.9c0.1,2,0.4,4.1,1.6,5.2c1.5,0.9,2.5-2.1,2.9-2.7c0.2-0.4,0.3-0.2,0.6,0.4
			c0.6,1.2,2,2.9,3.6,2.6c1.1-0.2,1.9-1.1,2.4-2c0.4-0.7,0.8-1.7,1.3-1.7c0.8-0.1,1.7,0.3,2.5,0.1c2.1-0.7,1.2-3.8,0.2-6.4
			c3.3-3.3,4.9-7.9,4-12.6c-1.6-7.7-9.7-12.5-18.1-10.7c-8.4,1.7-13.9,9.4-12.3,17C249.3,50.7,253.9,54.7,259.5,55.9z M268.2,39.4
			c2-0.4,4.1,1.2,4.6,3.5S272,47.6,270,48s-4.1-1.2-4.6-3.5C264.9,42.1,266.1,39.9,268.2,39.4z M264.9,50.5L264.9,50.5
			c1-0.8,2.5-0.1,3,0.8c0.6,0.9,0.6,2.3-0.5,3.1C265.8,55.4,263.7,51.9,264.9,50.5L264.9,50.5z M258.5,41.5c2-0.4,4.1,1.2,4.6,3.5
			s-0.8,4.6-2.8,5.1c-2,0.4-4.1-1.2-4.6-3.5C255.2,44.1,256.5,41.9,258.5,41.5z"/>
		<path class="st10" d="M289.5,66.2c-0.6-0.3-1.3-0.2-2-0.1c-2.3,0.4-4.5,1-6.4,1.2l0,0l0,0c-1.4-0.2-5-1-8.9-1.9
			c3.1-2.2,5.7-4,6.3-4.5c2.3,0.4,5.5,0.9,8.1-0.1c2.8-0.9,2.2-4.1-0.7-3.9c-0.7,0-1.6,0.3-2,0.4c-0.5,0.2-0.7,0-0.8-0.5
			c-0.3-1.7-1.4-5.2-3.7-3.6c-1.5,1.1-2.3,3.5-2.8,5c-0.9,0.8-4.5,3.5-8.4,6.3c-3.9-0.9-7.6-1.8-9.6-2.3c-0.4-0.1-0.7-0.2-1-0.5
			c-1.3-1.2-3.2-3.6-5.3-3.1c-1.3,0.3-1.5,1.8-1.3,3.2c0.1,0.8,0.3,2-0.7,2.3c-0.9,0.3-1.9,0.5-2.5,1.2c-0.8,0.8-0.8,1.9-0.1,2.5
			c1.2,1,3.2,0.6,4.6,0.1c1.3-0.5,2.6-1.2,3.7-1.8c0.5-0.3,1.1-0.6,1.4-0.6c1.4,0.2,4.2,0.8,7.5,1.5c-3.5,2.5-6.6,4.8-7.3,5.3l0,0
			l0,0c-1.4,0.4-5.3,1-7.7,1.7c-0.6,0.2-1.1,0.7-1,1.4c0.2,0.7,0.5,1.7,1.2,2.1c1.1,0.4,3-0.4,4.1,0.5c1.2,0.7,1.6,4.6,3.1,4.4
			c1.5-0.8,0.9-5.1,0.9-6.6c0.7-0.7,5.8-4.3,10.8-7.9c5.2,1.1,10.5,2.3,12.5,2.8c0.6,0.1,0.8,0.7,1.1,1.3c0.6,1.3,1.5,4.3,3,4.4
			c1.6-0.6-0.1-4.5,1.9-5.7c0.8-0.6,2-0.8,2.6-1.5C290.5,68.3,290.4,66.7,289.5,66.2z"/>
	</g>
</g>
<g id="parrot_x5F_foot2">
	<g>
		<path class="st6" d="M104.3,226.9c-5.3,2.1-6.4,5.8-5.9,11.3c0.2,2.7-0.7,6.8,2.1,7.6c1.6,0.7,3.6,0.3,5.1,1.1
			c1.3,0.7,2.2,2.4,3.2,3.5c0.5,0.6,1.1,1,1.9,0.7c1.6-0.5,3.8-2.3,5.5-3c1.8-1,3.7,0.7,5.2-0.1c1.7-1.2,2.8-3.4,4.1-5
			c0.8-1.1,1.1-2.1,1.2-3.5c0.1-3.2,0.8-9.5,0.7-12.3c-0.1-0.9-0.9-1.2-2.6-1.7c-1.9-0.5-3.8-1.3-5.7-1.5c-2-0.1-4.5,0.9-6.7,1.1
			c-2.6,0.3-5.6,0.7-7.8,1.7L104.3,226.9L104.3,226.9z"/>
		<path class="st13" d="M109.9,252.6c-2.1-0.1-3.5-3.4-5.1-4.5c-7.3-0.7-8.2-2.8-7.9-9.8c-1.9-10.9,7.8-14.3,17.7-15.2
			c3.8-1.2,12.7-0.1,14.2,3.9c0.1,1.9-0.2,4.9-0.4,8c-0.4,3.4,0.3,6.2-1.8,8.9c-1.9,2.5-4.1,7.1-8,5.5
			C115.3,248.6,113.2,252.9,109.9,252.6L109.9,252.6z M103.5,244.8c3.2-0.2,4.9,2.9,6.8,4.8c3.4-1.8,6.4-4.3,10.4-2.9
			c5.6-4.2,4.8-13.1,5.1-19.2c-4.4-2-8.7-2.3-13.4-0.9c-7,0.7-13.8,2.4-12.5,11.4C100,241.9,99.2,245.1,103.5,244.8L103.5,244.8z
			 M104.3,226.9L104.3,226.9L104.3,226.9z"/>
	</g>
	<g>
		<path class="st6" d="M106.4,226.3c0,0-3.8,14.4,0,20.7"/>
		<path class="st13" d="M106.3,248c-0.3,0-0.6-0.2-0.8-0.5c-4-6.6-0.2-20.9-0.1-21.5c0.1-0.5,0.7-0.9,1.2-0.7
			c0.5,0.1,0.9,0.7,0.7,1.2c0,0.1-3.7,14.1-0.1,19.9c0.3,0.5,0.1,1.1-0.3,1.4C106.7,248,106.5,248,106.3,248L106.3,248z"/>
	</g>
	<g>
		<path class="st6" d="M115.8,225.2c0,0-2.7,14.5,1,21.1"/>
		<path class="st13" d="M116.8,247.4c-0.3,0-0.6-0.2-0.8-0.5c-3.9-6.9-1.3-21.2-1.1-21.8c0.1-0.5,0.6-0.9,1.2-0.8
			c0.5,0.1,0.9,0.6,0.8,1.2c0,0.1-2.6,14.2,0.9,20.4c0.3,0.5,0.1,1.1-0.4,1.4C117.2,247.3,117,247.4,116.8,247.4L116.8,247.4z"/>
	</g>
</g>
<g id="parrot_x5F_foot1">
	<g>
		<path class="st6" d="M134.8,224.1c-0.5,0.5-0.9,0.8-1.4,1c-6.5,2.7-8.2,8.7-6.1,15.8c0.5,2.2,0.9,4.5,1.5,6.5
			c0.1,0.1,0.1,0.1,0.2,0.1c0.3,0,0.5-0.2,0.7-0.3c3.3-2.3,3.2,1.8,5,3.4c0.3,0.2,0.5,0.2,0.9,0.2c3.9-0.9,5.6-4.8,8.6,0.5
			c1.8,3.1,4.3,2.3,5.6-0.3c1.6-3.1,1.6-7.9,2.1-11.4c0.2-3.2,1.8-9.8,0.5-12c-2.2-2.2-6.2-0.6-8.4-3c-4.2-4-4.4-5.2-9.1-0.6
			L134.8,224.1L134.8,224.1z"/>
		<path class="st13" d="M146.6,254.8c-1-0.1-2.4-0.7-3.6-2.7c-3-6.2-7.1,6.4-11.6-4.1c-4.7,3.6-4.7-3.6-5.5-6.7
			c-2.8-9,0.9-14.8,7.9-18.2c4.8-4.7,6.4-4.4,10.3-0.5c2.2,3.3,7.1,1.1,9.7,4.3c1.5,1.9,0,9.1-0.3,12.9
			C152.7,244.7,153.2,254.6,146.6,254.8L146.6,254.8z M141.5,247.1c1.8-0.5,3.7,3.8,5.4,4.7c3.6-1.2,4.4-19.5,4.3-23.3
			c-0.7-0.6-1.8-0.7-3.1-0.9c-7.1,0.4-6.6-9.2-12.3-2.5l0,0c-10.6,4.9-7.9,12.4-6,20.2c3.1-1.7,4.6,1.7,5.7,3.8
			C137.6,248.7,139.5,246.9,141.5,247.1L141.5,247.1z M134.8,224.1L134.8,224.1L134.8,224.1z"/>
	</g>
	<g>
		<path class="st6" d="M135.8,223.8c0,0-5.6,16.3-2.5,23.8"/>
		<path class="st13" d="M133.1,248.6c-0.4,0-0.7-0.3-0.8-0.6c-3.2-7.8,2.2-23.8,2.5-24.5c0.2-0.5,0.8-0.8,1.3-0.6s0.8,0.8,0.6,1.3
			c-0.1,0.2-5.4,16-2.5,23.1c0.2,0.5,0,1.1-0.6,1.3C133.5,248.6,133.3,248.6,133.1,248.6L133.1,248.6z"/>
	</g>
	<g>
		<path class="st6" d="M145.1,225c0,0-4.8,15.9-3,23.4"/>
		<path class="st13" d="M142.1,249.4c-0.4,0-0.8-0.3-0.9-0.8c-1.9-7.8,2.8-23.3,3-24c0.2-0.5,0.7-0.8,1.2-0.7
			c0.5,0.2,0.8,0.7,0.7,1.2c-0.1,0.2-4.7,15.7-2.9,22.9c0.1,0.5-0.2,1.1-0.7,1.2C142.3,249.4,142.2,249.4,142.1,249.4L142.1,249.4z"
			/>
	</g>
</g>
<g id="boat_x5F_splash">
	<path class="st10" d="M326.5,383c0,0-8.4-27.1-23.5-24.2S280.3,383,280.3,383s-2.5-9.5-10.1-5.1s-33.6-43.6-53.8-34.5
		c-20.2,9.2-17.6,32.2-17.6,32.2s-29-11.7-30.2,7.3c0,0-26.9-30.9-44.5-20.4c0,0-10.9,1.7,0,16.7c0,0-27.3-7.3-40.3,10.3
		c0,0,221-9.2,274.7,4.4S326.5,383,326.5,383L326.5,383z"/>
	<path class="st10" d="M166.7,364.1c0,0-12.5-10.1,0-16s19.8-2.4,15.9,2.1S166.7,364.1,166.7,364.1L166.7,364.1z"/>
	<path class="st10" d="M113.9,372.2c0,0-11.7,0.1-19.9-9.9c-8.3-10.1-5.4-12.4-5.4-12.4s12.3-4,18.4,6.4
		C113.2,366.8,113.9,372.2,113.9,372.2L113.9,372.2z"/>
</g>
<g id="parrot_x5F_eye">
	<path d="M144.7,85.1c-2.3,1.9-4.9,3.9-7.3,5.9c2.6,1.5,5.1,3.1,7.8,4.6c-3.4,14.1-17.6,10.6-17.7-4.5
		C127.3,69.8,143.1,76,144.7,85.1z"/>
</g>
</svg>
