<?xml version="1.0" encoding="UTF-8"?>
<svg id="Layer_1" data-name="Layer 1" xmlns="http://www.w3.org/2000/svg" viewBox="0 0 513.71 492.86">
  <g>
    <path d="M198.66,295.72c1.26,7.24,6.52,28.67-3.52,40.51-1.31,1.55-3.94,4.75-5.87,6.66-2.95,2.94-9.39,11.61-5.02,16.8,5.32,6.31,20.91-9.46,24.5-14.14,0,0-9.16,8.66-8.76,12.55.4,3.88,7.77,4.38,11.35,1.39s14.24-11.55,19.12-29.08c3.61-12.97,4.25-29.05,4.34-36.53.03-2.66-.99-5.21-2.83-7.12l-3.43-3.54c-2.61-2.7-6.51-3.72-10.1-2.65l-12.73,3.79c-2.86.85-5.19,2.92-6.37,5.66h0c-.77,1.79-1.01,3.77-.68,5.69Z" fill="#1d74b3"/>
    <path d="M205.44,362.93c-1.28,0-2.53-.21-3.63-.66-1.95-.79-3.12-2.22-3.31-4.01-.02-.2-.02-.41,0-.63-3.62,2.77-7.5,4.97-10.74,5.04-1.89.07-3.5-.65-4.64-2-5.17-6.13,1.93-15.67,5.11-18.83,1.58-1.57,3.68-4.08,5.08-5.73l.71-.84c8.68-10.24,5.25-28.33,3.6-37.02-.16-.86-.31-1.62-.42-2.26h0c-.38-2.21-.12-4.48.78-6.55,1.36-3.15,4.03-5.53,7.32-6.5l12.73-3.79c4.15-1.24,8.6-.07,11.61,3.04l3.43,3.54c2.13,2.21,3.29,5.11,3.25,8.18-.1,8.24-.8,24-4.39,36.92-4.9,17.61-15.41,26.34-19.37,29.63l-.24.2c-1.76,1.47-4.37,2.28-6.87,2.28ZM204.6,352.28c-1.91,2.4-3.23,4.59-3.12,5.67.07.66.56,1.17,1.45,1.54,1.97.8,5.43.53,7.45-1.14l.24-.2c3.76-3.13,13.75-11.43,18.4-28.13,3.5-12.59,4.19-28.05,4.28-36.15.03-2.27-.83-4.42-2.41-6.06l-3.43-3.54c-2.23-2.3-5.52-3.17-8.6-2.25l-12.73,3.79c-2.44.73-4.42,2.48-5.42,4.82-.66,1.53-.86,3.21-.58,4.85.11.63.25,1.38.41,2.22,1.73,9.15,5.34,28.18-4.26,39.52l-.7.83c-1.43,1.7-3.59,4.27-5.25,5.93-3.08,3.07-8.34,10.72-4.93,14.78.56.66,1.3.95,2.27.93,3.91-.09,9.98-4.85,14.55-9.24,2.19-2.76,4.67-5.18,5.5-5.96.57-.54,1.45-.55,2.03-.02.58.52.66,1.41.19,2.03-.68.89-2.68,3.2-5.35,5.81Z" fill="#3b2e2a"/>
  </g>
  <g>
    <path d="M167.22,210.09s-11.54,11.98-10.15,32.99,8.3,36.71,8.3,36.71l11.04-4.44s-12.98-17.33-11.98-39.24c1-21.91,1.03-23.22,2.78-26.02Z" fill="#b8302b"/>
    <polygon points="157.97 257.61 165.71 254.57 176.42 275.35 165.38 279.79 157.97 257.61" fill="#1782af"/>
    <g>
      <path d="M156.96,236.86l6.54,2.09,2.43,12.96,2.3,6.76s-2.33-3.05-5.63-1.2c-3.31,1.85-3.27,2.03-3.27,2.03,0,0-2.92-17.88-2.36-22.64Z" fill="#1d74b3"/>
      <path d="M159.32,260c-.23,0-.44-.16-.49-.4,0-.04-.02-.08-.02-.12-.26-1.6-2.89-18.04-2.35-22.68.02-.15.1-.28.23-.36.12-.08.28-.1.42-.06l6.54,2.09c.17.06.31.2.34.38l2.43,12.96,2.28,6.69c.08.23-.02.49-.24.6-.22.12-.48.06-.63-.14-.09-.11-2.11-2.68-4.99-1.07-2.47,1.38-3,1.79-3.11,1.88-.07.1-.18.17-.31.2-.03,0-.06,0-.09,0ZM157.41,237.53c-.24,4.7,1.74,17.67,2.28,21.07.53-.34,1.36-.83,2.66-1.56,1.9-1.06,3.6-.67,4.81.05l-1.7-5.01-2.39-12.74-5.66-1.81Z" fill="#3b2e2a"/>
    </g>
    <path d="M164.4,281.26c-.58,0-1.13-.33-1.37-.9-.29-.65-7.03-16.18-8.43-37.21-1.42-21.39,11.93-36.79,12.5-37.44.52-.59,1.4-.68,2.02-.21.63.47.79,1.33.38,2-1.69,2.71-3.57,7.37-4.53,28.65-.96,21.09,11.56,38.1,11.68,38.27.28.37.37.85.24,1.3-.13.45-.45.81-.88.99l-11.04,4.44c-.18.07-.37.11-.56.11ZM163.65,216.41c-3.34,6.34-6.78,15.7-6.06,26.54,1.13,17.02,5.99,30.65,7.63,34.86l7.92-3.18c-3.19-4.83-12.02-20-11.17-38.61.41-9.09,1-15.26,1.68-19.6Z" fill="#3b2e2a"/>
  </g>
  <g>
    <path d="M171.15,265.12l5.28,10.23,24.78,10.36,18.91-11.15-3.59-23.1-6.77-39.44-11.65-14.34-23.16,3.73s-8.91,5.23-10.85,18.18c-.58,3.87-.81,8.27-.86,12.54-.11,11.48,2.65,22.8,7.91,33Z" fill="#b8302b"/>
    <path d="M201.2,287.21c-.2,0-.39-.04-.58-.12l-24.78-10.36c-.33-.14-.59-.38-.75-.7l-5.28-10.23h0c-5.4-10.47-8.19-22.12-8.07-33.7.05-4.92.34-9.21.87-12.75,2.03-13.5,11.18-19.02,11.57-19.25.16-.09.34-.16.52-.19l23.16-3.73c.53-.09,1.06.12,1.4.54l11.65,14.34c.16.2.27.44.31.69l6.77,39.44,3.59,23.13c.09.61-.19,1.21-.72,1.52l-18.91,11.15c-.23.14-.5.21-.76.21ZM177.51,274.18l23.58,9.86,17.39-10.25-3.43-22.1-6.7-39.03-10.85-13.36-22,3.54c-1.31.88-8.27,6.04-9.91,16.97-.51,3.4-.79,7.55-.84,12.33-.11,11.1,2.57,22.27,7.74,32.3l5.03,9.74Z" fill="#3b2e2a"/>
  </g>
  <g>
    <path d="M200.59,201.97s-13.52,30.12-4.21,49.08c9.31,18.96,12.57,21.51,12.57,21.51h5.98l1.99,17.13s7.37-1.9,7.97-6.23c0,0,7.67,6.03,9.91,6.23s6.42-19.6,4.83-43.86c-1.59-24.26-34.01-45.7-34.01-45.7l-5.02,1.84Z" fill="#b8302b"/>
    <path d="M198.31,252.62l40.46-4.71c.46-.05.88.28.94.75.61,4.55,3.04,26.47-4.42,39.87-.23.42-.77.56-1.18.31l-8.49-5.14c-.3-.18-.67-.16-.94.05l-6.18,4.66c-.53.4-1.28.07-1.36-.59l-1.71-14.19c-.04-.32-.25-.6-.55-.71l-11.02-4.2c-.22-.09-.4-.26-.49-.49l-5.77-14.4c-.21-.53.13-1.13.69-1.2Z" fill="#1782af"/>
    <g>
      <path d="M192.41,236.73s5.52,10.21,10.99,8.18,4.66-12.86,16.4-3.96c11.73,8.9,11.33-6.23,11.33-6.23h5.68l3.16,19.91s-8.03-1.39-8.84,5.58c-.81,6.97-7.44-5.58-14.95-1.59-7.51,3.98-8.16,4.76-16.64-.11,0,0-7.11-18.97-7.13-21.78Z" fill="#1d74b3"/>
      <path d="M229.75,262.87c-.96,0-2.12-.76-3.52-1.68-2.75-1.81-6.17-4.06-9.82-2.12l-.95.51c-6.63,3.54-7.83,4.17-16.17-.62-.1-.06-.18-.15-.22-.26-.29-.78-7.14-19.08-7.16-21.95,0-.23.15-.43.38-.49.22-.06.46.04.56.25.05.1,5.38,9.8,10.38,7.95,1.61-.6,2.68-2.1,3.71-3.55,1.23-1.73,2.5-3.51,4.71-3.85,2.17-.33,4.85.78,8.44,3.51,3.24,2.46,5.77,3.25,7.53,2.34,3.14-1.61,3-8.1,3-8.17,0-.13.05-.27.14-.36.09-.1.22-.15.36-.15h5.68c.25,0,.46.18.49.42l3.16,19.91c.03.16-.03.32-.14.43-.12.11-.28.17-.44.14-.04,0-3.76-.62-6.19,1.21-1.18.88-1.87,2.21-2.08,3.94-.16,1.36-.54,2.14-1.21,2.45-.21.1-.43.14-.66.14ZM219.33,257.32c2.85,0,5.42,1.7,7.46,3.03,1.36.89,2.64,1.73,3.2,1.47.22-.1.51-.47.64-1.66.24-2.02,1.07-3.58,2.47-4.63,2.13-1.59,4.98-1.58,6.27-1.47l-2.99-18.84h-4.76c-.03,1.68-.39,6.95-3.54,8.57-2.13,1.09-5.02.27-8.59-2.44-3.32-2.52-5.83-3.6-7.69-3.32-1.79.27-2.89,1.81-4.05,3.44-1.12,1.57-2.28,3.2-4.18,3.9-4.07,1.51-8.01-3.01-10.1-6,1.37,4.88,4.87,14.51,6.47,18.79,7.72,4.42,8.58,3.96,15.05.52l.95-.51c1.16-.62,2.29-.86,3.38-.86Z" fill="#3b2e2a"/>
    </g>
    <path d="M234.14,291.19c-.06,0-.12,0-.17,0-1.99-.18-6.42-3.29-9.08-5.3-2.12,3.56-7.57,5.07-8.29,5.25-.42.11-.87.03-1.22-.21s-.59-.63-.64-1.06l-1.84-15.8h-4.64c-.33,0-.66-.11-.92-.32-.36-.28-3.8-3.3-13-22.03-9.51-19.37,3.62-49.1,4.19-50.35.17-.37.47-.66.85-.79l5.03-1.84c.45-.16.95-.11,1.34.16,1.35.89,33.06,22.14,34.68,46.85,1.49,22.66-1.91,41.97-4.8,44.81-.54.52-1.08.65-1.49.65ZM224.19,281.96c.33,0,.66.11.93.32,3.14,2.47,7.06,5.15,8.64,5.78,1.68-2.93,5.13-19.92,3.67-42.13-1.41-21.41-28.28-41.02-32.72-44.12l-3.69,1.35c-1.76,4.2-12.19,30.53-3.98,47.23,7.35,14.97,10.83,19.51,11.85,20.67h5.35c.76,0,1.4.57,1.49,1.33l1.78,15.29c2.08-.82,4.92-2.38,5.2-4.43.07-.53.43-.98.92-1.19.18-.07.37-.11.56-.11Z" fill="#3b2e2a"/>
  </g>
  <g>
    <path d="M157.97,139.68v-11.91l23.9-11.95,15.93-16.33s16.93-.6,20.32,3.19c3.39,3.78,7.97,36.85,5.98,56.17h-6.37s12.75,1,15.93,7.97-2.39,15.14-2.39,15.14l-3.19-4.38s7.94,7.57,6.56,11.55-8.75,9.56-11.34,5.98-4.78-9.16-4.78-9.16c0,0,7.77,15.34-2.79,15.93s-10.96-.9-12.89-9.56c0,0,3.92,5.81-2.25,9.68s-20.32,5.66-27.09,4.27c-6.77-1.39-10.35-4.81-10.35-4.81l4.07-46.58-9.25-15.17Z" fill="#b8302b"/>
    <path d="M179.03,208.2c-2.22,0-4.22-.16-5.82-.49-7.11-1.46-10.93-5.04-11.09-5.19-.33-.31-.5-.76-.46-1.22l4.03-46.08-9-14.75c-.14-.24-.22-.51-.22-.78v-11.91c0-.57.32-1.09.83-1.34l23.67-11.84,15.76-16.15c.27-.28.63-.44,1.02-.45,2.94-.1,17.82-.41,21.49,3.69,3.98,4.45,8.31,38.31,6.35,57.31,3.71,1.26,7.72,3.44,9.43,7.2,2.69,5.88-.09,12.31-1.64,15.14,1.92,2.63,3.53,5.8,2.67,8.28-1.23,3.55-5.95,7.54-9.54,8.07-1.49.22-2.8-.13-3.78-.98-.09,1.24-.38,2.42-.97,3.44-.79,1.36-2.46,3.03-5.96,3.22-6.73.38-9.83-.2-11.65-2.62-.68.94-1.61,1.78-2.78,2.51-5.03,3.15-14.9,4.95-22.36,4.95ZM164.72,200.78c1.17.91,4.28,3,9.09,3.99,6.4,1.32,20.16-.42,25.99-4.07,1.5-.94,2.4-2.07,2.68-3.36.01-.06.03-.12.04-.19-.39-1.27-.74-2.78-1.13-4.53-.16-.7.21-1.42.87-1.7.67-.29,1.43-.06,1.84.54.08.11,1.66,2.5,1.47,5.46,1.26,3.66,3.08,3.84,10.09,3.45,1.76-.1,2.92-.66,3.53-1.72,1.31-2.26.25-6.42-.86-9.39-.71-1.54-1.16-2.67-1.2-2.77-.29-.75.05-1.59.78-1.92.73-.33,1.59-.02,1.95.69.16.31.69,1.4,1.26,2.89.86,1.84,2.08,4.25,3.4,6.07.14.2.48.65,1.57.5,2.68-.39,6.35-3.82,7.14-6.08.39-1.13-.59-3.14-2.04-5.18-.45-.02-.87-.25-1.13-.62l-3.19-4.38c-.46-.63-.36-1.5.22-2.01.58-.51,1.46-.49,2.02.04.4.38,1.23,1.2,2.2,2.29,1.28-2.71,2.81-7.32.98-11.33-2.78-6.08-14.57-7.09-14.69-7.1-.8-.06-1.41-.75-1.38-1.55.03-.8.69-1.44,1.5-1.44h5.01c1.66-19.54-3.01-50.63-5.73-53.67-1.95-2.18-11.82-2.88-18.55-2.71l-15.51,15.9c-.12.12-.25.22-.4.29l-23.07,11.54v10.56l9.03,14.81c.17.27.24.59.21.91l-4,45.8Z" fill="#3b2e2a"/>
  </g>
  <g>
    <g>
      <path d="M151.66,196.9c-2.56,5.49-.46,11.33-.46,11.33-24.32-16.62-20.96-38.18-16.29-50.34,3.02-7.85,9.24-14.18,17.21-16.85,18.04-6.04,30.54,9.82,30.54,9.82l.4,3.98s11.35-3.98,17.13,5.98c5.78,9.96,1.59,28.48-7.57,35.45-7.62,5.8-25.04,5.95-32.62,4.8-1.72-.26-3.36-.9-4.82-1.86l-3.53-2.32Z" fill="#fac63c"/>
      <path d="M151.2,209.73c-.29,0-.59-.09-.84-.26-25.41-17.37-21.46-40.1-16.84-52.11,3.27-8.5,9.88-14.97,18.14-17.73,18.83-6.3,32.06,10.15,32.19,10.31.18.22.29.5.31.78l.23,2.26c3.71-.73,12.23-1.3,17.11,7.1,6.13,10.57,2.04,29.79-7.96,37.4-8.36,6.37-26.68,6.16-33.75,5.09-1.93-.29-3.75-1-5.42-2.09l-1.96-1.29c-1.25,4.32.2,8.5.21,8.54.22.61.02,1.3-.5,1.69-.27.21-.59.31-.92.31ZM160.4,141.17c-2.44,0-5.05.39-7.79,1.3-7.4,2.48-13.34,8.3-16.29,15.96-4.11,10.67-7.64,30.45,12.66,46.31-.22-2.35-.09-5.44,1.33-8.48.18-.4.53-.69.95-.81.42-.12.87-.05,1.23.19l3.53,2.32c1.3.86,2.72,1.4,4.22,1.63,7.44,1.13,24.3.96,31.49-4.51,8.63-6.57,12.45-24.41,7.18-33.51-5.07-8.74-14.92-5.46-15.34-5.31-.43.15-.91.09-1.3-.15-.39-.25-.64-.66-.69-1.11l-.35-3.53c-1.56-1.83-9.39-10.3-20.83-10.3Z" fill="#3b2e2a"/>
    </g>
    <path d="M151.2,209.73c-.6,0-1.16-.36-1.39-.95-3.2-8.08.36-16.09,8.67-19.49,2.08-.85,4.21-1.39,6.32-1.6,9.27-.93,24.71-5.29,23.94-24.02-.03-.83.61-1.53,1.44-1.56.88-.05,1.53.61,1.56,1.44.9,21.98-18.33,26.29-26.64,27.13-1.83.18-3.67.65-5.49,1.39-6.79,2.78-9.61,9.05-7.01,15.6.3.77-.07,1.64-.84,1.95-.18.07-.37.11-.55.11Z" fill="#3b2e2a"/>
    <path d="M195.02,168.3c-.54,0-1.06-.29-1.33-.8-.96-1.84-2.24-2.98-3.9-3.5-3.38-1.05-7.17.92-7.21.94-.73.39-1.64.11-2.03-.62-.39-.73-.11-1.64.62-2.02.2-.11,4.91-2.57,9.49-1.16,2.44.75,4.35,2.42,5.69,4.98.38.73.1,1.64-.63,2.03-.22.12-.46.17-.7.17Z" fill="#3b2e2a"/>
  </g>
  <g>
    <path d="M236.83,85.69c-3.29,1.36-8.47,1.68-11-.72-3.58-3.58-5.84-7.13-10.33-11.4-17.27-17.11-38.77-26.71-59.06-7.85-13.68,12.68-19.18,29.99-17.75,48.14.02.22.03.44.03.66,0,2.67-.36,5.13-1.53,7.07-1.55,2.79-5.04,4.4-8.05,3.04-.39-.15-.77-.35-1.15-.58-6.95-4.23-15.86,1.78-13.72,9.62.53,1.94,1.72,3.97,3.87,6.01,4.63,4.39,8.45,6.97,11.3,8.48,3.08,1.63,6.84,1.28,9.62-.85,4.79-3.66,12.91-9.56,17.17-10.78,1.35-.39,2.63-1.01,3.68-1.94,5.5-4.85,21.89-18.54,38.2-24.54,15.21-5.6,15.48-5.94,17.71-4.56,2.11,1.3,3.58,3.42,4.08,5.85l2.02,9.81c1.11,5.38,6.74,8.57,11.9,6.68,1.85-.68,3.78-1.76,6.72-3.66.2-.13.39-.28.56-.46,1.09-1.13,5.22-5.87,9.51-16.51,4.07-10.1,1.52-16.51.42-18.56-.06-.11-.12-.21-.2-.32-.76-1.06-5.1-6.31-14.01-2.63Z" fill="#010101"/>
    <path d="M185.54,97.66c-1.43-.44-15.01-4.39-16.88-5.14-.73-.93-1.86-2.43-3.23-2.86-2.04-.48-1.96,2.2-1.73,3.48.04.39-.02.61-.43.58-.38,0-1.03.05-1.54.21-2.06.62-1.71,2.99.5,2.93,2.13.05,4.2-1.1,5.76-1.94,1.57.47,16.71,4.73,18.04,5.3.37,1.06,1.03,4.27,2.27,4.43,1.06-.26.37-3.05,1.07-3.87.6-.88,2.13-.77,2.78-1.33.4-.44.37-1.17.3-1.73-.1-.52-.52-.76-1.03-.76-1.85.12-4.76.64-5.86.71h-.01Z" fill="#fff"/>
    <path d="M167.73,100.05c2.23-1.22,11.66-7.23,14.56-9.16.25-.17.43-.34.6-.63.64-1.15,1.36-3.28,2.97-3.5.97-.08,1.48.93,1.75,1.93.15.61.27,1.48,1.08,1.46.68,0,1.44-.12,2.08.19.77.34,1.05,1.12.69,1.76-.61,1-2.1,1.2-3.23,1.21-1.05,0-2.11-.18-3.06-.38-.39-.08-.91-.18-1.17-.09-2.67,1.49-13.13,7.99-15.58,9.61-.39.24-.4.73-.42,1.2-.08,1.09,0,3.42-1,3.81-1.3-.01-1.06-3.19-2.78-3.54-.72-.23-1.62-.1-2.2-.44-.7-.4-1.04-1.51-.48-2.14.34-.37.89-.48,1.38-.57,1.72-.31,3.42-.39,4.79-.71h.02Z" fill="#fff"/>
    <path d="M184.32,77.02c.62-4.79-3.37-9.14-8.91-9.72s-10.54,2.84-11.15,7.63c-.37,2.9.94,5.64,3.27,7.47-.5,1.65-.87,3.65.51,3.93.55.09,1.12-.22,1.65-.22.36-.02.66.55.95.95.37.51.97,1.04,1.68,1.08,1.06.08,1.85-1.01,2.17-1.8.16-.35.21-.48.37-.27.27.37,1.1,2.12,2,1.48.7-.77.76-2.08.72-3.29,3.57-1.04,6.3-3.78,6.74-7.24ZM170.33,80.08c-1.35-.14-2.28-1.46-2.09-2.94s1.44-2.57,2.78-2.43,2.28,1.46,2.09,2.94-1.44,2.57-2.78,2.43ZM172.3,83.82c-.72-.41-.82-1.28-.48-1.87.3-.53,1.19-1.04,1.86-.66l.04.02c.91.73-.28,3.01-1.42,2.51ZM176.7,80.74c-1.35-.14-2.28-1.46-2.09-2.94s1.44-2.57,2.78-2.43,2.28,1.46,2.09,2.94-1.44,2.57-2.78,2.43Z" fill="#fff"/>
  </g>
  <g>
    <path d="M252.15,308.3c-14.31-5.68-110.66-30.3-124.31-34.59-.57-.15-1.25.13-1.23.79-.16,9.76,3.32,34.86,7.75,49.33,11.14,38.46,35.66,86.8,84.6,95.29,35.38,4.22,99.99,3.01,138.29,3.86,1.36.05,2.5-.33,3.16-1.64,2.42-6.56,4.77-11.37,6.88-18.1,1.51-6.65,2.91-11.36,9.23-14.92,14.51-7.19,32.71-32.71,37.47-56.27,1.98-10.64,3.98-23.19,5.57-33.07.19-1.83.68-3,.56-4.17-.02-.06-.05-.1-.09-.14-.38-.38-1.8-.53-3.9-.55-22.49.86-61.16,4.48-82.49,6.22-2.09.12-4.92.36-5.62,2.72-4.06,8.99-20.92,46.8-25.78,57.5-.46,1.01-.89,1.73-2.07,2.32-1.51.74-3.33.95-4.98,1.28-2.29.42-4.97.91-7.25,1.32-1.76.29-3.57.73-5.34.36-1.87-.38-3.19-1.7-4.57-2.99-1.56-1.46-3.11-2.95-4.66-4.43-1.94-1.86-3.68-3.52-5.49-5.24-1.32-1.27-2.76-2.54-3.71-4.19-.8-1.38-1.2-2.93-1.64-4.45-3.42-11.59-7.2-27.41-10.35-36.18l-.02-.03Z" fill="#7b332b"/>
    <g>
      <path d="M419.63,281.97l-101.69,9.3s-4.07,61.01-28.47,69.73c0,0-4.17-.17-9.08-3.14l11.11-265.89-5.23-4.07-18.8,251.97c-1.18-3.84-2.04-8.37-2.41-13.73-2.32-33.99-2.91-27.31-2.91-27.31l-187.11-48.81s-6.97-3.2-8.13,3.49c-1.16,6.68,6.39,8.13,6.39,8.13l173.74,53.46s13.07,56.65,37.19,60.43c24.11,3.78,37.19-30.22,37.19-30.22l10.46-36.03,91.23-6.39s4.07-7.55-3.49-20.92Z" fill="#4f2726"/>
      <path d="M287.88,376.09c-1.22,0-2.45-.1-3.69-.29-12.58-1.97-22.09-18.38-27.85-31.8-5.87-13.66-9.15-27.08-9.53-28.69l-173.59-53.41s-7.78-1.58-6.59-8.45c.33-1.92,1.17-3.25,2.49-3.94,2.54-1.33,5.9.18,6.05.24l186.75,48.71c.06-.25.16-.46.4-.46h0c.44,0,1.1.01,3.02,28.11.3,4.42.96,8.5,1.96,12.17l18.68-250.41c0-.1.07-.2.17-.24.1-.04.21-.03.29.04l5.23,4.07c.07.06.11.14.11.24l-11.11,265.72c4.43,2.64,8.26,2.98,8.75,3.01,23.9-8.62,28.19-68.85,28.23-69.46,0-.14.12-.25.26-.26l101.69-9.3c.11,0,.22.05.27.14,7.54,13.35,3.66,20.88,3.49,21.19-.05.09-.13.14-.23.15l-91.03,6.38-10.4,35.84c-.04.11-3.36,8.65-9.6,16.62-7.26,9.27-15.57,14.09-24.22,14.09ZM71.54,249.53c-.73,0-1.48.13-2.15.48-1.15.61-1.89,1.8-2.19,3.53-1.1,6.33,5.87,7.75,6.17,7.81l173.77,53.47c.1.03.17.11.19.21.13.56,13.31,56.51,36.96,60.22,23.62,3.7,36.75-29.7,36.88-30.04l10.45-36c.03-.11.13-.2.25-.2l91.06-6.38c.48-1.07,3.26-8.36-3.46-20.35l-101.27,9.26c-.15,2.02-1.32,16.33-5.07,31.4-3.73,14.98-10.84,33.79-23.57,38.33-.03.01-.07.02-.11.02-.17,0-4.3-.2-9.22-3.19-.09-.05-.14-.15-.14-.25l11.11-265.75-4.7-3.65-18.76,251.45c0,.14-.12.25-.25.26-.14.02-.26-.07-.3-.2-1.26-4.08-2.07-8.72-2.42-13.8-1.35-19.76-2.1-25.51-2.45-27.1,0,0,0,0,0,0-.07.05-.15.06-.23.04l-187.11-48.81c-.06-.02-1.68-.75-3.44-.75Z" fill="#4f2726"/>
    </g>
    <path d="M286.04,72.7c-4.07,1.86-4.64,5.99-4.74,10.07-.54,16.29-1.73,52.89-2.18,66.98-.11,6.3-.38,8.35,6.98,4.72,3.36-1.57,8.22-3.95,13.67-6.57,6.15-2.97,13.01-6.28,19.05-9.19,6.79-3.13,10.52-5.46,15.75-7.14,3.28-1.11,6.93.65,10.26,3.25,3.87,2.88,8.97,7.34,12.81,10.27,4.55,3.56,7.57,5.27,12.31,2.51,17.94-9.74,60.02-32.62,75.8-41.39,2.39-1.46,1.89-1.78-1.9-1.86-15.16-.09-34.99,0-51.21-.03-3.59,0-7.06,0-10.54,0-4.89-.02-7.8-.02-9.34-2.16-.95-1.33-1.27-2.88-1.58-4.56-.8-5.06-1.04-11.24-1.48-16.28-.23-2.98-.43-5.28-.64-6.78-.3-1.66-.27-2.48-1.4-3.3-12.68-6.34-41.85-4.44-57.98-2.71-7.29.96-17.22,1.42-23.52,4.12l-.12.06Z" fill="#b8302b"/>
    <path d="M254.27,339.73h-.03c-31.87-.2-63.44-8.83-84.32-16.04-22.58-7.79-37.46-15.44-38.09-15.76-1.95-1-2.71-3.4-1.7-5.34,1-1.95,3.39-2.71,5.34-1.7.59.31,59.86,30.54,118.81,30.91,2.19.01,3.95,1.8,3.94,3.99-.01,2.18-1.79,3.94-3.96,3.94Z" fill="#4f2726"/>
    <path d="M325.44,373.99c-3.39,0-6.83-.04-10.32-.13-24.93-.62-52.32-3.44-81.41-8.38-49.49-8.4-87.35-20.22-87.72-20.34-2.09-.66-3.25-2.88-2.59-4.97.66-2.09,2.88-3.25,4.97-2.59.37.12,37.81,11.79,86.78,20.1,45.01,7.63,109.25,13.91,159.71.46,2.12-.56,4.29.69,4.85,2.81.56,2.12-.69,4.29-2.81,4.85-20.4,5.44-44.4,8.19-71.45,8.19Z" fill="#4f2726"/>
    <path d="M341.38,343.08c-14.72,0-22.71-2.45-23.37-2.66-2.09-.67-3.23-2.9-2.57-4.98.67-2.08,2.89-3.23,4.98-2.57.44.14,31.05,9.22,85.27-10.47,2.06-.75,4.33.32,5.08,2.37.75,2.06-.32,4.33-2.37,5.08-29.15,10.58-51.72,13.23-67.02,13.23Z" fill="#4f2726"/>
    <path d="M313.82,404.07c-41.53,0-74.82-4.63-97.68-9.25-34.14-6.89-52.64-15.04-53.42-15.38-1.97-.88-2.86-3.21-2.01-5.22.86-2.01,3.15-2.92,5.11-2.05.28.13,18.8,8.23,52.12,14.93,30.83,6.2,81,12.43,144.94,6.89,2.15-.18,4.02,1.43,4.2,3.62.18,2.18-1.4,4.1-3.54,4.29-17.64,1.53-34.26,2.17-49.73,2.17Z" fill="#4f2726"/>
    <g>
      <path d="M321.46,104.42c.11,1.96.38,4.08,1.55,5.22,1.47.9,2.49-2.05,2.86-2.69.21-.36.3-.15.6.39.6,1.23,1.96,2.88,3.56,2.6,1.08-.16,1.92-1.1,2.42-1.99.39-.69.77-1.66,1.33-1.68.81-.09,1.72.33,2.55.11,2.07-.66,1.22-3.83.24-6.44,3.3-3.32,4.94-7.94,3.97-12.59-1.6-7.67-9.69-12.48-18.07-10.73-8.38,1.74-13.88,9.38-12.29,17.05,1.15,5.54,5.69,9.58,11.28,10.75ZM327.37,93.05c-.49-2.38.75-4.64,2.79-5.07s4.09,1.16,4.58,3.53-.75,4.64-2.79,5.07-4.08-1.16-4.58-3.53ZM326.94,99.08l.05-.04c.98-.71,2.4-.02,2.94.8.61.9.56,2.32-.47,3.09-1.67.98-3.8-2.54-2.51-3.85ZM317.74,95.06c-.49-2.38.75-4.64,2.79-5.07s4.08,1.16,4.58,3.53-.75,4.64-2.79,5.07c-2.03.42-4.09-1.16-4.58-3.53Z" fill="#fff"/>
      <path d="M319.43,120.75c1.61-1.19,17.04-12.23,19.06-14.01.5-1.51,1.28-3.91,2.81-5.05,2.36-1.51,3.46,1.91,3.73,3.64.12.51.29.76.81.54.49-.17,1.32-.4,2.05-.43,2.88-.14,3.49,3.03.67,3.93-2.67,1.01-5.8.48-8.15.11-1.77,1.29-19.03,13.41-20.46,14.72,0,1.5.6,5.86-.91,6.61-1.45.15-1.82-3.7-3.07-4.43-1.15-.84-3.04-.03-4.11-.45-.7-.38-.99-1.32-1.15-2.06-.11-.71.33-1.19.96-1.42,2.4-.67,6.3-1.3,7.73-1.71h.01Z" fill="#fff"/>
      <path d="M343.03,115.85c-3.36-.56-17.96-3.96-22.49-5.11-.4-.11-.69-.24-1.04-.53-1.32-1.17-3.18-3.55-5.31-3.1-1.27.33-1.46,1.84-1.35,3.22.08.85.32,2-.72,2.32-.86.29-1.87.49-2.54,1.17-.82.77-.83,1.89-.09,2.53,1.21,1,3.2.58,4.62.09,1.34-.46,2.59-1.17,3.7-1.84.45-.28,1.07-.63,1.44-.64,4.04.7,20.16,4.27,23.98,5.22.59.13.83.74,1.07,1.33.59,1.34,1.51,4.33,2.97,4.38,1.64-.59-.07-4.5,1.94-5.71.81-.62,2-.84,2.59-1.54.71-.81.64-2.37-.35-2.92-.6-.31-1.34-.21-2-.1-2.31.38-4.5,1.03-6.37,1.23h-.03Z" fill="#fff"/>
    </g>
  </g>
  <g>
    <g>
      <path d="M166.29,275.43c-5.29,2.1-6.37,5.81-5.89,11.3.23,2.69-.67,6.81,2.12,7.57,1.57.66,3.57.32,5.05,1.07,1.26.73,2.16,2.42,3.17,3.48.53.58,1.14.96,1.9.74,1.62-.52,3.82-2.28,5.46-2.97,1.81-1,3.68.66,5.23-.08,1.71-1.17,2.79-3.42,4.06-4.99.84-1.13,1.14-2.13,1.18-3.48.13-3.25.75-9.54.67-12.31-.12-.9-.94-1.18-2.65-1.69-1.89-.51-3.79-1.27-5.72-1.5-2-.15-4.53.88-6.67,1.11-2.57.28-5.58.66-7.8,1.7l-.13.06Z" fill="#fac63c"/>
      <path d="M171.9,301.13c-.69-.08-1.48-.41-2.26-1.27-.4-.41-.78-.91-1.15-1.4-.55-.72-1.12-1.47-1.67-1.8-.44-.22-1.2-.3-2.01-.38-.87-.09-1.85-.19-2.78-.56-3.16-.93-3.13-4.41-3.1-6.96,0-.69.01-1.35-.03-1.9-.42-4.82.06-10.11,6.8-12.81l.1-.04c2.36-1.11,5.37-1.51,8.25-1.83.76-.08,1.6-.29,2.5-.5,1.48-.36,3.01-.72,4.44-.62,1.52.17,2.9.61,4.25,1.02.58.18,1.17.36,1.75.52,1.82.55,3.5,1.06,3.75,2.95,0,.05.01.1.01.15.06,1.81-.16,4.89-.38,7.86-.12,1.73-.24,3.36-.29,4.56-.06,1.74-.49,2.99-1.48,4.32-.41.5-.77,1.05-1.16,1.62-.88,1.3-1.87,2.77-3.27,3.72-.06.04-.12.08-.19.11-1.2.58-2.38.32-3.33.1-.84-.19-1.38-.29-1.82-.05-.05.03-.09.05-.14.07-.63.26-1.45.77-2.25,1.27-1.12.69-2.27,1.41-3.34,1.75-.35.1-.76.16-1.2.11ZM165.48,293.33c.9.1,1.87.24,2.77.69,1.15.67,1.93,1.7,2.63,2.61.33.44.65.85.95,1.16.29.31.41.35.41.35.67-.22,1.66-.84,2.63-1.43.87-.54,1.77-1.09,2.6-1.45,1.43-.75,2.83-.44,3.85-.21.52.12,1.02.23,1.29.15.87-.65,1.62-1.76,2.35-2.84.4-.6.82-1.22,1.27-1.78.58-.78.81-1.47.85-2.59.05-1.25.17-2.91.3-4.66.19-2.63.4-5.6.38-7.3-.32-.17-1.1-.41-1.59-.56-.57-.15-1.2-.35-1.82-.54-1.26-.39-2.46-.77-3.63-.9-.91-.07-2.21.25-3.46.55-.95.23-1.92.46-2.87.57-2.51.28-5.36.65-7.32,1.57l-.15.07s-.04.02-.06.02c-4.14,1.65-5.44,4.21-4.95,9.78.06.7.05,1.46.04,2.19-.03,2.56.11,3.82.98,4.06.06.02.13.04.19.06.54.23,1.26.3,2.01.38.12.01.24.02.36.04ZM166.29,275.43h0s0,0,0,0Z" fill="#3b2e2a"/>
    </g>
    <g>
      <path d="M168.45,274.87s-3.84,14.42-.04,20.7" fill="#fac63c"/>
      <path d="M168.3,296.57c-.3-.03-.58-.2-.75-.48-3.98-6.57-.23-20.87-.07-21.48.14-.53.68-.86,1.22-.71.53.14.85.69.71,1.22-.04.14-3.69,14.08-.15,19.93.29.47.13,1.09-.34,1.37-.2.12-.41.16-.63.14Z" fill="#3b2e2a"/>
    </g>
    <g>
      <path d="M177.83,273.78s-2.74,14.5,1.03,21.11" fill="#fac63c"/>
      <path d="M178.75,295.89c-.31-.03-.6-.21-.76-.5-3.9-6.86-1.26-21.19-1.14-21.79.1-.54.62-.9,1.17-.8.54.1.9.63.8,1.17-.03.14-2.63,14.22.91,20.43.27.48.11,1.09-.37,1.36-.19.11-.4.15-.6.12Z" fill="#3b2e2a"/>
    </g>
  </g>
  <g>
    <g>
      <path d="M196.79,272.67c-.48.45-.85.77-1.41,1.05-6.47,2.67-8.17,8.72-6.06,15.76.51,2.19.92,4.55,1.47,6.48.05.08.13.12.24.1.27-.05.54-.23.7-.33,3.34-2.32,3.25,1.75,5,3.36.26.18.54.25.86.23,3.89-.88,5.55-4.77,8.64.51,1.8,3.09,4.27,2.33,5.61-.27,1.57-3.15,1.65-7.9,2.11-11.42.18-3.19,1.76-9.84.49-12.01-2.25-2.21-6.17-.59-8.39-2.98-4.17-4.04-4.43-5.22-9.15-.58l-.1.1Z" fill="#fac63c"/>
      <path d="M208.56,303.33c-.97-.11-2.41-.66-3.62-2.74-1.43-2.44-1.72-2.28-3.63-1.22-.9.49-2.01,1.11-3.38,1.42-.07.02-.14.03-.21.03-.68.06-1.32-.12-1.85-.5-.05-.04-.1-.08-.15-.12-.76-.7-1.21-1.62-1.6-2.43-.2-.41-.53-1.09-.73-1.24,0,.02-.27.08-.8.45-.04.03-.08.05-.13.08-.3.18-.68.4-1.16.49-.76.1-1.39-.19-1.76-.76-.08-.13-.15-.26-.19-.41-.36-1.25-.66-2.68-.95-4.05-.17-.83-.35-1.68-.54-2.49-2.43-8.09.13-14.65,6.89-17.47.34-.18.58-.38,1.01-.78l.1-.1c4.81-4.73,6.32-4.26,10.21-.41.31.31.65.64,1.02,1,.81.87,2.01,1,3.41,1.16,1.65.18,3.52.39,4.99,1.83.09.09.18.2.24.31,1.08,1.85.73,5.11.11,9.52-.18,1.27-.35,2.47-.39,3.34,0,.04,0,.07-.01.11-.11.82-.19,1.7-.28,2.62-.3,3.1-.65,6.62-1.97,9.28-1,1.95-2.52,3.08-4.16,3.12-.14,0-.3,0-.47-.02ZM203.51,295.66c1.31.14,2.64,1.06,4.02,3.42.47.81,1.01,1.29,1.42,1.27.37,0,1-.4,1.56-1.47,1.07-2.14,1.38-5.37,1.66-8.21.09-.93.18-1.83.29-2.67.06-.98.23-2.21.42-3.52.32-2.32.86-6.13.35-7.42-.73-.59-1.82-.71-3.06-.85-1.74-.19-3.71-.41-5.22-2.04-.32-.31-.66-.65-.98-.97-1.15-1.14-2.14-2.12-2.63-2.13-.76-.01-2.67,1.86-3.39,2.57l-.12.12s0,0,0,0c-.52.48-1.01.91-1.76,1.29-.03.02-.07.03-.1.05-7.26,3-6.37,10.02-5.19,13.94.22.93.4,1.79.58,2.65.16.78.32,1.53.49,2.24.84-.4,1.62-.5,2.35-.31,1.44.38,2.1,1.73,2.63,2.82.24.49.48.99.75,1.33.83-.24,1.57-.65,2.29-1.04,1.22-.67,2.43-1.22,3.65-1.09ZM196.79,272.67h0s0,0,0,0Z" fill="#3b2e2a"/>
    </g>
    <g>
      <path d="M197.75,272.31s-5.55,16.3-2.49,23.79" fill="#fac63c"/>
      <path d="M195.15,297.09c-.35-.04-.67-.26-.82-.62-3.16-7.75,2.23-23.81,2.47-24.49.18-.52.75-.8,1.27-.62.52.18.8.75.62,1.27-.05.16-5.39,16.03-2.51,23.09.21.51-.04,1.1-.55,1.3-.16.07-.33.09-.49.07Z" fill="#3b2e2a"/>
    </g>
    <g>
      <path d="M207.13,273.49s-4.78,15.85-2.96,23.43" fill="#fac63c"/>
      <path d="M204.07,297.91c-.41-.04-.76-.34-.86-.76-1.86-7.75,2.78-23.29,2.97-23.95.16-.53.71-.83,1.25-.67.53.16.83.72.67,1.25-.05.16-4.68,15.68-2.94,22.91.13.54-.2,1.08-.74,1.21-.12.03-.23.03-.34.02Z" fill="#3b2e2a"/>
    </g>
  </g>
  <g>
    <path d="M388.51,431.51s-8.4-27.12-23.52-24.19c-15.12,2.93-22.68,24.19-22.68,24.19,0,0-2.52-9.53-10.08-5.13-7.56,4.4-33.61-43.61-53.77-34.45-20.16,9.16-17.64,32.25-17.64,32.25,0,0-28.99-11.73-30.25,7.33,0,0-26.89-30.85-44.53-20.37,0,0-10.92,1.68,0,16.71,0,0-27.31-7.33-40.33,10.26,0,0,220.96-9.16,274.74,4.4,53.77,13.56-31.93-11-31.93-11Z" fill="#fff"/>
    <path d="M228.66,412.66s-12.5-10.11,0-15.96c12.5-5.85,19.82-2.39,15.86,2.13s-15.86,13.84-15.86,13.84Z" fill="#fff"/>
    <path d="M175.94,420.74s-11.67.15-19.95-9.91c-8.28-10.07-5.4-12.44-5.4-12.44,0,0,12.26-4.05,18.44,6.43,6.17,10.48,6.91,15.93,6.91,15.93Z" fill="#fff"/>
  </g>
  <ellipse cx="191.91" cy="141.17" rx="8.41" ry="5.41" transform="translate(29.85 315.79) rotate(-83.47)" fill="#3b2e2a"/>
</svg>