<?xml version="1.0" encoding="UTF-8"?>
<svg id="Layer_1" data-name="Layer 1" xmlns="http://www.w3.org/2000/svg" viewBox="0 0 432.3 431.83">
  <g>
    <path d="M138.15,222.41s-3.93,28.72,23.02,48.33c0,0,6.58-23.18,33.52-40.95,26.94-17.77-56.55-7.38-56.55-7.38Z" fill="#fff"/>
    <path d="M161.17,274.23c-.73,0-1.45-.23-2.05-.67-28.32-20.61-24.61-50.38-24.43-51.63.22-1.57,1.46-2.8,3.04-3,.15-.02,14.99-1.85,30.01-2.66,30.19-1.62,34.15,2.12,35.49,5.75,1.88,5.1-4.27,9.16-6.59,10.69-25.42,16.77-32.02,38.78-32.08,39-.32,1.1-1.15,1.97-2.23,2.34-.37.13-.76.19-1.14.19ZM141.44,225.53c-.18,6.77,1.11,24.95,18.14,39.49,3.45-8,12.58-24.57,33.19-38.16,1.74-1.15,2.7-1.99,3.23-2.53-5.93-2.5-31.51-1.5-54.56,1.2Z" fill="#3b2e2a"/>
  </g>
  <path d="M73.84,199.59s20.45,23.34,51.36,25.27,115.89-.07,144.9,14.64c29.02,14.71,55.44,51.9,55.44,51.9,0,0-4.01,36.33,8.84,48.21,12.86,11.88,17.21,14.44,17.21,14.44,0,0,5.98-27.57,4.36-38.16s-5.39-20.21-5.39-20.21c0,0,3.88,9.52,29.94-10.25,26.06-19.78,29.76-20.14,29.76-20.14,0,0-19.17-13.57-50.05-8.58-30.88,4.99-29.44,13.17-29.44,13.17,0,0,8.77-38.01-56.48-99.56-65.24-61.54-137.87-53.02-137.87-53.02,0,0-65.72,6.74-99.07,52.77,0,0,17.65,33.64,36.49,29.5,0,0,11.08-1.07,17.16-7.63" fill="#fff"/>
  <g>
    <path d="M173.54,125.76s31.52-40.34,65.68-34.85c0,0-7.41,35.92,4.95,58.81,12.36,22.89-70.63-23.96-70.63-23.96Z" fill="#a4bcc8"/>
    <path d="M241.89,159.57c-5.26,0-15.36-2.96-36.88-13.38-16.84-8.16-33.03-17.29-33.2-17.38-.89-.5-1.51-1.36-1.71-2.36-.2-1,.05-2.04.67-2.84,1.34-1.71,33.21-41.9,68.99-36.15.94.15,1.78.68,2.32,1.47s.74,1.76.55,2.69c-.07.35-7,34.96,4.6,56.44,2.8,5.19,1.55,8.08,0,9.59-1.05,1.03-2.48,1.92-5.36,1.92ZM178.97,124.78c5.44,2.99,16.17,8.79,27.42,14.29,24.38,11.93,32.67,13.44,35.25,13.47-.12-.3-.3-.69-.55-1.16-10.55-19.54-7.53-47.34-5.96-57.41-24.96-1.54-48.42,22.09-56.16,30.8Z" fill="#3b2e2a"/>
  </g>
  <path d="M246.44,197.9c-8.65,28.5,7.66,36.44,17.31,58.58s-25.32-2.13-25.32-2.13c-16.47-7.58-56.29-56.14-56.29-56.14l6.48,8.27-12.37-2.89c-11.87-1.74-56.92-17.75-89.48-29.74-32.56-11.99-45.86,2.22-45.86,2.22l-3.55-5.97s42.43-50.68,108.75-53.17c66.32-2.49,107.81,36.51,128.19,53.42,20.38,16.91,41.61,42.54,51.96,69.28,10.34,26.74,4.52,30.28,4.52,30.28,0,0,11.01-8.71,37.15-14.06,26.14-5.35,42.34,9.47,42.34,9.47,0,0-16.54,15.73-37.3,25.47-20.76,9.73-22.39,4.92-22.39,4.92,0,0,2.43,7.29,5.39,20.21,2.96,12.92-4.36,38.16-4.36,38.16,0,0-14.45-11.92-24.17-27.6-9.72-15.67-1.88-35.06-1.88-35.06l-5.34-7-7.18-13.6s-10.34-26.74-39.71-51.19c-29.36-24.45-29.31-6.86-29.31-6.86.03,17.37,12.03,25.99,19.75,43.73,9.64,22.14-25.32-2.13-25.32-2.13-16.47-7.58-56.29-56.14-56.29-56.14" fill="#a4bcc8"/>
  <path d="M352.16,357.36c-.76,0-1.57-.21-2.39-.71-.08-.05-.15-.1-.23-.15-4.17-2.98-12.33-9.63-16.58-14.44-6.11-6.56-8.51-16.03-9.44-22.81-1.06-7.34-1.32-15.38-.79-24.56l.04-.55c.04-.58.08-1.18.08-1.52-.1-.14-.24-.32-.37-.49l-.06-.09c-11.33-14.5-24.11-29.88-44.18-43.82-21.87-15.26-63.49-15.98-100.21-16.62-20.86-.36-40.56-.7-55.02-3.64-17.75-3.16-39.33-14.99-50.59-24.95-2.85.08-5.8-.34-8.87-1.44-12.27-4.03-22.47-18.3-27.45-26.46-.88-1.45-1.31-2.83-1.34-4.24-.1-2.24,1.31-4.63,2.16-5.84,1.84-2.7,5.47-6.79,9.68-10.91,21.27-21.64,60.01-36.61,87.26-40.19,6.14-.72,12.41-1.46,32.17.58,35.27,3.3,80.35,24.08,107.2,49.42,30.5,26.91,59.93,66.09,62.16,97.34,3.36-2.01,6.94-3.39,8.41-3.83,24.03-8.04,50.32-6.32,68.64,4.49.09.05.18.11.26.17,2.17,1.33,2.04,3.32,1.95,3.91-.14.9-.63,1.72-1.36,2.26-.67.5-1.26.78-1.78,1.03-.42.2-.86.41-1.5.81-.03.02-.07.04-.1.06-6.22,3.58-12.97,8.55-19.5,13.35-5.56,4.09-11.32,8.33-16.77,11.73-.04.02-.07.04-.11.06-3.41,1.96-10.15,5.83-16.53,5.93,1.96,6.65,3.8,14.57,3.56,20.2-.28,11.29-2.59,26.25-4.57,33.09-.09.32-.23.62-.41.9-.7,1.11-1.95,1.9-3.41,1.9ZM81.28,201.2c11.06,8.33,28.65,17.33,43.05,19.9,13.91,2.82,33.3,3.16,53.83,3.51,37.72.65,80.47,1.39,104.09,17.87,20.87,14.49,34.03,30.33,45.73,45.31l.1.14c1.79,2.38,1.9,3.25,1.68,6.67l-.03.52c-.5,8.68-.26,16.27.73,23.16.8,5.8,2.77,13.79,7.69,19.08,2.91,3.28,8.07,7.73,12.15,10.94,1.54-7.25,3.04-18.41,3.25-27.06.19-4.52-1.37-12.17-4.39-21.59-.03-.08-.05-.16-.07-.25-.03-.14-.1-.29-.15-.44-.12-.34-.25-.72-.35-1.13,0-.03-.01-.05-.02-.08-.56-2.05.48-3.3.96-3.75,1-.93,2.43-1.21,3.74-.72.22.08.42.18.62.3,4.12,2.55,13.06-2.55,16.07-4.28,5.21-3.25,10.83-7.39,16.27-11.39,5.91-4.35,11.99-8.83,17.86-12.42-16.17-7.39-38.33-8.02-58.14-1.38-.04.01-.08.03-.12.04-4.19,1.24-9.84,4.71-10.64,6.2-.38,1.78-2.08,2.98-3.9,2.73-1.87-.26-3.2-1.96-3-3.84,3.21-29.73-28.72-72.72-59.74-100.08-.03-.03-.06-.05-.09-.08-25.83-24.4-69.2-44.41-103.12-47.58-19.02-1.96-24.64-1.3-30.59-.6-26.04,3.42-63,17.64-83.21,38.2-3.83,3.75-7.29,7.63-8.86,9.93-.58.82-.85,1.5-.92,1.76.02.12.08.32.31.7,3.61,5.9,13.16,20.03,23.7,23.46.03.01.07.02.1.04,7.76,2.79,14.88-.35,23.18-5.92,1.6-1.08,3.78-.65,4.86.95s.65,3.78-.95,4.86c-3.71,2.49-7.59,4.81-11.68,6.33ZM348.52,297.33s0,0,0,0c0,0,0,0,0,0ZM322.97,292.81h.01-.01ZM335.24,270.19s0,0,0,0c0,0,0,0,0,0ZM41.76,170.68s0,.02,0,.04c0-.01,0-.02,0-.04Z" fill="#3b2e2a"/>
  <path d="M150.83,200.26c-.96,0-1.88-.56-2.29-1.49-.55-1.26,0-2.72,1.26-3.29.42-.2,9.02-4.44,7.8-20.06-.11-1.38.92-2.58,2.3-2.69,1.38-.13,2.58.92,2.69,2.3,1.51,19.37-10.25,24.79-10.75,25.01-.33.14-.67.21-1.01.21Z" fill="#4e6bb3"/>
  <path d="M162.9,201.28c-.91,0-1.78-.5-2.23-1.36-.63-1.22-.15-2.72,1.07-3.36.39-.21,8.88-4.9,9.23-18.94.03-1.38,1.21-2.46,2.56-2.44,1.38.03,2.47,1.18,2.44,2.56-.43,17.17-11.47,23.01-11.94,23.26-.36.19-.75.28-1.14.28Z" fill="#4e6bb3"/>
  <ellipse cx="101.02" cy="164.4" rx="7.42" ry="5.77" transform="translate(-91.49 151.34) rotate(-54.55)" fill="#3b2e2a"/>
  <circle cx="64.07" cy="174.9" r="2.78" fill="#3b2e2a"/>
  <path d="M188.43,205.97s33.35,40.3,49.82,47.88c0,0,34.96,24.27,25.32,2.13-9.64-22.14-25.95-30.07-17.31-58.58l-63.89-.34s5.8,8.2,6.06,8.91Z" fill="#a4bcc8"/>
  <g>
    <path d="M188.8,206.67c6.36,7.59,32.13,38.4,50.45,48.72,2.23,1.37,4.79,2.96,7.24,4.38,5.78,3.35,13.64,7.27,17.02,5.91,4.07-2.17.09-9.64-1.37-12.83-10.73-19.73-22.87-29.74-15.51-54.74" fill="#a4bcc8"/>
    <path d="M261.85,269.48c-3.06,0-8.04-1.41-17.12-6.68-2.35-1.37-4.78-2.87-6.93-4.19l-.34-.21c-12.46-7.04-29.71-23.66-51.26-49.38l-.09-.11c-1.24-1.48-1.05-3.69.44-4.93,1.48-1.24,3.69-1.05,4.93.43l.09.11c26.21,31.29,41.33,43.27,49.4,47.81.04.02.08.05.12.07l.39.24c2.11,1.3,4.5,2.77,6.77,4.1,8.82,5.12,12.44,5.69,13.56,5.71.1-.82-.32-2.76-2.41-7.22-.14-.3-.27-.57-.38-.83-2.14-3.92-4.33-7.45-6.45-10.87-8.35-13.45-15.57-25.06-9.29-46.43.55-1.85,2.49-2.92,4.34-2.37,1.85.55,2.92,2.49,2.37,4.35-5.4,18.36.44,27.76,8.52,40.76,2.19,3.53,4.46,7.18,6.71,11.32.04.07.08.15.11.22.12.26.26.55.4.87,1.97,4.21,6.08,12.95-.58,16.51-.11.06-.22.11-.34.16-.76.31-1.7.55-2.97.55Z" fill="#3b2e2a"/>
  </g>
</svg>