<?xml version="1.0" encoding="utf-8"?>
<!-- Generator: Adobe Illustrator 28.1.0, SVG Export Plug-In . SVG Version: 6.00 Build 0)  -->
<svg version="1.1" id="steering-wheel" xmlns="http://www.w3.org/2000/svg" xmlns:xlink="http://www.w3.org/1999/xlink" x="0px"
	 y="0px" viewBox="0 0 580.5 565.4" style="enable-background:new 0 0 580.5 565.4;" xml:space="preserve">
<style type="text/css">
	.st0{fill:#EACC99;}
	.st1{fill:#D7B380;}
	.st2{fill:#694734;}
	.st3{fill:#492F23;}
</style>
<g id="steer-main">
	<path id="radial-1" class="st0" d="M427.4,169.9c33.5,40.2,47.7,95.6,37.1,146.9c-29.7,143-206,193.8-305.4,85.5
		C61,293.7,127.3,120.7,272.6,105.1C330.9,99,390.6,124.4,427.4,169.9L427.4,169.9z M290.4,116.1c-217.8,6.2-220,321.9-2.9,331.2
		C508.1,444.6,511.2,123.2,290.4,116.1z"/>
	<path id="radial-2" class="st1" d="M290.4,116.1c45.2,0.7,86.2,16.5,118.3,48.5c32.3,32.2,47.1,71.7,47.1,117.3
		c0,45.7-15.8,86.2-48.4,118.4c-32.8,32.5-73.8,47.7-119.9,47c-44.8-0.7-84.4-16.5-115.9-48.4c-31.8-32.2-47.1-72.2-47-117.4
		c0-45.4,15.8-85.6,47.9-117.7C204.8,131.7,244.8,116.8,290.4,116.1z M305.8,130c-76.1-8.5-150.5,45.2-165.6,120.4
		c-12.3,55.8,9.1,117.7,54.7,152.2c77.8,64.1,198.2,32.4,236.7-60.1C471.7,247.8,408,140.2,305.8,130z"/>
</g>
<path id="center-frame" class="st0" d="M357.4,364.1c-44.7,36.1-112.5,29.8-149.2-14.7C170.6,305.7,178,236.3,223.5,201
	c56.3-44.2,138.6-22.6,165.9,43.2c7,14.9,8.7,29.3,6.8,46C394.1,318.7,379.8,346.1,357.4,364.1L357.4,364.1z"/>
<path id="center" class="st2" d="M290.3,204.4c-44.5,0-77.4,34.6-77.4,77.3c0,42.9,31.6,77.4,77.3,77.4c47,0,77.5-34.7,77.5-77.3
	C367.6,236.2,336.4,204.4,290.3,204.4z"/>
<g id="spokes">
	<path class="st3" d="M410.7,413.4c3.4-3.5,6.9-6.9,10.3-10.4c2.2-2.4,4.3-4.9,6.5-7.4c0.3-0.4,0.7-0.7,1.1-1c0.5,0.4,1,0.7,1.4,1.2
		c6.7,6.7,13.5,13.4,20.2,20.2c0.4,0.4,0.8,0.8,1.3,1.2c4-3.2,8.3-5.5,13-7.3c6.8-2.7,13.9-3.9,21.1-3.2c6.8,0.6,11.8,4.3,15.4,10.1
		c3.8,6.2,5.3,12.9,3.9,19.9c-2.2,11.2-8.8,18.9-19.9,22.4c-1.8,0.6-3.7,0.8-5.6,1c-1.1,0.2-1.4,0.5-1.1,1.7c0.9,4.1,1,8.2,0.4,12.3
		c-0.8,5.1-2.7,9.7-5.7,13.9c-4.5,6.3-10.5,10.4-17.9,12.5c-4.5,1.3-9.1,1.6-13.7,0.9c-3.9-0.6-7.6-1.6-10.9-3.9
		c-0.2-0.5-0.3-1.1-0.6-1.6c-1.3-2.8-2.8-5.5-3.8-8.4c-2.5-7.1-3.5-14.4-2.4-21.8c0.9-6.6,3.3-12.8,7.6-18.1
		c1.5-1.8,3.2-3.5,4.9-5.4c-1.9-2.2-3.8-4.3-5.7-6.4c-5.3-5.9-10.7-11.9-15.9-17.8C413.1,416.5,411.9,415,410.7,413.4z"/>
	<path class="st3" d="M467.9,290.5c0-5.2,0-10.4,0-15.6c-0.1-0.7-0.1-1.5-0.2-2.2c0-0.9,0-1.8-0.1-2.8c0.3,0.5,0.6,1,0.9,1.5
		c2.9-0.2,5.9-0.4,8.9-0.6c2.5-0.2,4.9-0.5,7.4-0.7c4.3-0.5,8.6-1,12.9-1.4c4.3-0.5,8.5-0.8,12.8-1.3c0.3,0,0.7-0.7,0.7-1.1
		c0-1.2-0.3-2.4-0.3-3.5c-0.1-6.5,1.7-12.4,4.9-18c3.5-6,8.3-10.7,14.6-13.8c1.5-0.7,3-1.4,4.5-2.1c5,1.2,9.2,3.8,12.8,7.4
		c6.6,6.7,9,14.9,8,24c-0.7,5.8-3.2,10.8-7.2,15.1c1.9,1.5,4,3,5.8,4.6c5.1,4.6,8.6,10.3,9.8,17c2.4,12.5-1,23.3-10.6,31.9
		c-4,3.5-8.6,5.8-13.7,7.1c-8.4,2.1-15.9,0.4-22.1-5.8c-6-6-10.1-13.2-13.2-21c-1-2.7-1.7-5.5-2.6-8.2c-0.3-1-0.8-1.4-2-1.4
		c-10.9,0.1-21.9,0-32.8,0c0.1-0.7,0.2-1.5,0.3-2.2c0-0.2,0-0.4,0-0.7c0.1-1.4,0.1-2.9,0.2-4.3C467.8,291.8,467.8,291.1,467.9,290.5
		z"/>
	<path class="st3" d="M307.4,459.7c0.1,0,0.2,0,0.3,0c0,10.2,0,20.4,0,30.6c2.3,0.5,4.6,1,6.8,1.6c7.1,1.9,13.4,5.2,19.2,9.7
		c3.9,3,7.4,6.5,9.6,11.1c1.8,3.7,2.2,7.5,1.5,11.6c-1.1,6.9-4.2,12.6-9.4,17.2c-3.8,3.4-8.2,5.6-13.3,6.5
		c-9.3,1.7-17.5-0.6-24.5-6.8c-1.9,2.3-3.6,4.7-5.7,6.8c-4.8,4.8-10.5,8-17.3,8.9c-3.2,0.4-6.5,0.7-9.7,0.4
		c-6-0.6-11.5-2.9-16.2-6.8c-1-0.8-1.9-1.7-2.8-2.6c0-0.5,0-0.9-0.1-1.4c0-3.3-0.4-6.7,0-10c0.7-5.7,2.8-10.9,6-15.8
		c3.4-5.3,8-9,13.6-11.6c5.5-2.6,11.4-3.4,17.5-3.5c2,0,2-0.1,1.9-2c-0.4-5-0.9-10.1-1.2-15.1c-0.3-4.8-0.5-9.5-0.6-14.3
		c-0.1-4.6,0-9.2,0-13.7c2.6,0,5.1,0.1,7.7,0.1c2.6,0,5.3-0.1,7.9-0.2c0.5-0.1,1.1-0.1,1.6-0.2c2.3-0.2,4.6-0.3,6.8-0.5
		C307,459.7,307.2,459.7,307.4,459.7z"/>
	<path class="st3" d="M427.5,169.3c-0.7-0.7-1.5-1.4-2.2-2.1c-5.3-5.4-10.5-10.8-15.7-16.2c-0.2-0.2-0.3-0.4-0.5-0.6
		c15-16,30.7-31.2,47.5-45.7c-1.3-1.2-2.3-2.1-3.3-3.1c-1.3-1.4-2.7-2.9-3.9-4.4c-3.1-3.9-5.4-8.3-6.7-13.2
		c-0.9-3.3-1.1-6.8-1.4-10.2c-0.1-1.9,0.4-3.9,0.6-5.8c5.1,0,9.5,2,13.6,4.8c5.7,3.9,9.4,9.3,11.3,16c0.5,1.6,0.5,3.4,0.7,5
		c0.1,0.9,0.4,1.2,1.4,1c4.1-1,8.2-1.1,12.5-0.5c5.2,0.8,9.9,2.7,14.2,5.8c6.1,4.5,10.3,10.4,12.3,17.7c1.2,4.4,1.7,8.8,0.9,13.2
		c-1.4,8.9-5.1,16.5-12.9,21.5c-3.1,2-6.6,2.7-10.3,2.8c-11.9,0.4-22.7-3.5-32.9-9.4c-1-0.6-1.6-0.7-2.5,0.2
		c-7.3,7.4-14.7,14.7-22,22.1C428.1,168.6,427.8,169,427.5,169.3z"/>
	<path class="st3" d="M162,406.2c0.8,0.7,1.6,1.4,2.4,2.1c4,3.6,8,7.3,12,11c0.3,0.3,0.5,0.7,0.8,1.1c-6.9,6.9-13.9,13.9-20.8,20.8
		c-0.6,0.6-0.7,1-0.2,1.7c3.7,4.8,6.1,10.2,7.9,16c1.9,6.2,2.8,12.6,2.1,19c-1,9.4-6.9,14.8-15.3,18.1c-4.7,1.8-9.6,2.2-14.5,1.4
		c-7.4-1.2-13.4-4.9-18-10.9c-3.2-4.3-5.3-9.1-5.5-14.5c-0.1-1.3-0.4-1.5-1.9-1.2c-4,0.9-8.1,1-12.2,0.3c-5.3-0.9-10-2.8-14.3-5.9
		c-1-0.8-1.9-1.7-2.9-2.5c0-3.1,0.1-6.1,1.1-9c1.3-4,3.4-7.5,6.2-10.6c5.6-6.4,12.1-11.4,20.1-14.7c5.5-2.2,11.1-3.2,17-2.8
		c2.2,0.1,4.4,0.7,6.4,1.3c1.4,0.4,2.6,1.3,3.8,2.1c2.2,1.3,3.1,1.3,4.9-0.5c3.7-3.9,7.4-7.7,11-11.6c1.9-2.1,3.8-4.3,5.7-6.3
		C159.1,408.9,160.6,407.6,162,406.2z"/>
	<path class="st3" d="M112.7,292.4c0.2,2.3,0.3,4.6,0.5,6.8c0,0.2,0,0.4,0,0.6c0,0.1,0,0.2,0,0.3c-10.2,0-20.4,0-30.7,0
		c-0.6,2.5-0.9,4.9-1.7,7.3c-3.3,10.3-8.4,19.4-17.1,26.1c-3.8,3-8.2,4.5-13.2,4c-10.7-1.1-20.5-7.6-24.5-18.8
		c-3.5-9.9-1.5-20.8,5.7-28.6c-2.5-2.2-5.3-4.2-7.6-6.6c-4.4-4.6-7.1-10-8.2-16.3c-1.6-9.1,0.2-17.5,5.6-25c1.5-2.1,3.6-3.9,5.4-5.8
		c1,0.1,1,0.8,1,1.6c0.2,5.5,1.9,10.6,4.8,15.2c1.9,3,4.4,5.6,6.8,8.2c2.9,3,6.5,5.2,10.4,6.2c6.2,1.7,12.5,3,18.9,4.1
		c4.9,0.9,9.9,1.4,14.9,2c5.2,0.6,10.5,1.1,15.7,1.5c4.3,0.3,8.6,0.3,12.9,0.4c0,1.6,0,3.3,0.1,4.9c0,3.4,0.1,6.9,0.1,10.3
		C112.6,291.3,112.7,291.9,112.7,292.4z"/>
	<path class="st3" d="M299,105.1c-1-0.1-2.1-0.2-3.1-0.2c-0.1-2-0.2-3.9-0.3-5.9c-0.4-4.3-0.8-8.6-1.2-12.9c-0.4-4.4-0.6-8.8-1-13.1
		c-0.5-5.9-1.1-11.8-1.5-17.7c-0.1-1.1-0.5-1.6-1.5-1.8c-1.3-0.3-2.6-0.5-4-0.7c-5.2-1-10.4-2.2-15.2-4.6c-3.3-1.6-6.2-3.7-8.5-6.5
		c-2.6-3.2-5.3-6.2-7.8-9.5c-2.5-3.4-3.8-7.4-4.6-11.5c3.1-2.1,6.6-3,10.2-3.4c7.6-0.8,14.6,1,20.7,5.8c0.6,0.5,1.2,1,1.7,1.4
		c2-2.4,3.8-4.9,6-7.1c4.8-4.7,10.5-7.6,17.1-8.7c16.2-2.8,31.2,6.6,36.5,21.4c1.6,4.4,2.2,9,1.6,13.6c-0.6,4.4-3,8-5.9,11.2
		c-6,6.4-13.5,10.6-21.6,13.7c-2.6,1-5.4,1.8-8.1,2.5c-1.1,0.3-1.4,0.8-1.4,2c0.1,10.2,0.1,20.5,0.1,30.7c0,0.7,0,1.4,0,2
		c-2.3-0.2-4.6-0.3-6.8-0.5C299.8,105.1,299.4,105.1,299,105.1z"/>
	<path class="st2" d="M166.6,154.6c-0.2,0.3-0.4,0.6-0.6,0.9c-4.1,4.5-8.3,9-12.4,13.5c-0.3,0.3-0.7,0.5-1.1,0.8
		c-3.4-3.4-6.7-6.8-10.1-10.2c-3.5-3.5-7-6.9-10.5-10.5c-0.9-0.9-1.4-0.9-2.3-0.2c-5.6,4.2-11.9,6.7-18.6,8.5
		c-4.9,1.3-9.8,1.7-14.8,1.4c-8.3-0.5-14-4.8-17.8-12c-3-5.7-4-11.7-2.9-17.9c2-11.3,9.9-19.9,21-22.9c1.5-0.4,3.1-0.5,4.6-0.6
		c1.1-0.1,1.3-0.5,1.1-1.5c-3.2-12.2,2.2-26.5,12.5-33.8c4.3-3.1,9-5.1,14.3-5.9c0.1,3,0.4,6.1,0.3,9.1c-0.1,5.8-2,11.2-4.3,16.4
		c-3.3,7.4-7.8,14.1-12.4,20.8c-3.3,4.9-6.8,9.7-10.1,14.5c-1.4,2.1-2.8,4.4-4,6.6c-1.1,2-0.4,3.1,1.7,3.2c1.2,0.1,2.4,0.1,3.5,0
		c5.1-0.6,10.1-1.3,15.2-2.1c6-0.9,12-2.1,18.2-1.4c6.1,0.7,11.5,2.8,15.8,7.2c3.7,3.8,7.2,7.9,10.7,11.9
		C164.7,151.7,165.6,153.2,166.6,154.6z"/>
	<path class="st3" d="M166.6,154.6c-1-1.4-1.9-2.9-3-4.2c-3.5-4-6.9-8.1-10.7-11.9c-4.3-4.4-9.7-6.5-15.8-7.2
		c-6.2-0.7-12.1,0.5-18.2,1.4c-5,0.8-10.1,1.4-15.2,2.1c-1.2,0.1-2.3,0.1-3.5,0c-2.1-0.2-2.8-1.3-1.7-3.2c1.2-2.3,2.6-4.5,4-6.6
		c3.3-4.9,6.8-9.7,10.1-14.5c4.5-6.7,9.1-13.4,12.4-20.8c2.3-5.2,4.3-10.6,4.3-16.4c0-3-0.2-6.1-0.3-9.1c0.9-0.1,1.9-0.2,2.8-0.2
		c0.4-0.1,0.8-0.1,1.3-0.2c0.7,0,1.4,0,2.2,0c0.3,0,0.6,0.1,1,0.1c1,0.1,2.1,0.1,3.1,0.2c0.3,0.1,0.6,0.2,0.9,0.3
		c10,2.1,18.2,6.7,21.8,16.9c1,2.9,1.3,6.3,1.4,9.4c0.2,10.6-3,20.4-8.2,29.5c-0.4,0.8-0.5,1.2,0.1,1.9c7.5,7.4,15,14.9,22.5,22.4
		c-0.2,0.4-0.3,0.9-0.6,1.2c-3.2,2.8-6.4,5.7-9.6,8.5C167.4,154.3,167,154.4,166.6,154.6z"/>
	<path class="st2" d="M250.3,20.4c0.8,4.2,2.1,8.1,4.6,11.5c2.4,3.3,5.2,6.3,7.8,9.5c2.3,2.8,5.3,4.9,8.5,6.5
		c4.8,2.4,10,3.6,15.2,4.6c1.3,0.3,2.6,0.5,4,0.7c1,0.2,1.4,0.6,1.5,1.8c0.4,5.9,1,11.8,1.5,17.7c0.4,4.4,0.6,8.8,1,13.1
		c0.4,4.3,0.8,8.6,1.2,12.9c0.2,2,0.2,3.9,0.3,5.9c-3.8,0-7.6,0-11.3,0.1c-4.2,0.2-8.3,0.5-12.8,0.8c0-0.9,0-2,0-3.1
		c-0.1-2.2-0.2-21.6-0.2-29.1c-5.1-0.6-9.9-2-14.5-4.1c-5.6-2.5-10.8-5.8-15.1-10.3c-5.6-5.8-7.7-12.5-5.7-20.4
		C238.3,30.7,242.9,24.5,250.3,20.4z"/>
	<path class="st2" d="M112.4,275.5c-4.3-0.1-8.6-0.1-12.9-0.4c-5.2-0.4-10.5-0.9-15.7-1.5c-5-0.6-10-1.1-14.9-2
		c-6.3-1.1-12.7-2.4-18.9-4.1c-3.9-1.1-7.5-3.2-10.4-6.2c-2.4-2.6-4.9-5.2-6.8-8.2c-2.9-4.6-4.6-9.7-4.8-15.2c0-0.8,0-1.5-1-1.6
		c4.2-3.8,9.1-6.2,14.7-7.2c2.3-0.4,4.7-0.6,7.1-0.6c5.1,0,9.4,2.2,13.2,5.4c8.4,7,13.6,16,16.9,26.3c0.3,0.8,0.7,1.7,0.8,2.5
		c0.1,1.4,0.9,1.7,2.2,1.7c10.5-0.1,20.9-0.1,31.4-0.1c0.1,0.2,0.2,0.4,0.2,0.6C113.1,268.5,112.8,272,112.4,275.5z"/>
	<path class="st2" d="M162,406.2c-1.4,1.4-2.9,2.7-4.3,4.1c-2,2.1-3.8,4.2-5.7,6.3c-3.6,3.9-7.3,7.8-11,11.6
		c-1.7,1.8-2.7,1.9-4.9,0.5c-1.2-0.8-2.4-1.6-3.8-2.1c-2.1-0.6-4.3-1.2-6.4-1.3c-5.8-0.3-11.5,0.6-17,2.8
		c-7.9,3.2-14.4,8.3-20.1,14.7c-2.8,3.2-4.8,6.7-6.2,10.6c-1,3-1,6-1.1,9c-4.1-3.6-6.9-8.2-8.7-13.3c-1.7-4.8-2.2-9.7-1.5-14.7
		c1.4-9.3,5.4-17.3,13.8-22.2c4.7-2.8,10-3,15.4-2.8c9.7,0.4,18.6,3.4,27,8.2c0.7,0.4,1.2,0.6,1.9-0.1c7.5-7.5,14.9-15,22.4-22.6
		c0.4,0.2,0.8,0.4,1.1,0.7c2.8,3.1,5.5,6.2,8.3,9.3C161.6,405.4,161.8,405.9,162,406.2z"/>
	<path class="st2" d="M442,68c-0.2,1.9-0.7,3.9-0.6,5.8c0.2,3.4,0.5,6.9,1.4,10.2c1.3,4.8,3.6,9.2,6.7,13.2c1.2,1.5,2.6,3,3.9,4.4
		c1,1,2,1.9,3.3,3.1c-16.8,14.4-32.5,29.7-47.5,45.7c-2.2-1.8-4.4-3.6-6.6-5.5c-0.2-0.2-0.3-0.5-0.4-0.8c5.7-5.6,11.3-11.3,17-17
		c1.6-1.6,3.2-3.3,4.9-4.8c0.7-0.6,0.7-1.1,0.1-1.8c-4.1-5.3-6.7-11.4-8.5-17.9c-1.3-4.9-1.8-9.8-1.4-14.8c0.5-5.8,3-10.7,7.8-14.2
		c5.8-4.3,12.2-6.4,19.5-5.8C441.7,67.9,441.8,67.9,442,68z"/>
	<path class="st2" d="M282.8,460.4c0,4.6-0.1,9.2,0,13.7c0.1,4.8,0.3,9.5,0.6,14.3c0.3,5.1,0.8,10.1,1.2,15.1c0.2,1.9,0.1,2-1.9,2
		c-6,0-11.9,0.9-17.5,3.5c-5.6,2.6-10.2,6.3-13.6,11.6c-3.1,4.9-5.3,10.1-6,15.8c-0.4,3.3,0,6.7,0,10c0,0.5,0,0.9,0.1,1.4
		c-4.8-4.6-7.9-10.2-9-16.8c-0.4-2.3-0.6-4.7-0.6-7.1c0-5.1,2.3-9.4,5.5-13.2c7-8.3,16-13.5,26.2-16.8c0.9-0.3,1.8-0.7,2.8-0.8
		c1.2-0.1,1.4-0.7,1.4-1.8c-0.1-10.6-0.1-21.1-0.1-31.7c0.2-0.1,0.5-0.2,0.7-0.2C276,459.8,279.4,460.1,282.8,460.4z"/>
	<path class="st2" d="M535,228.9c-1.5,0.7-3,1.4-4.5,2.1c-6.3,3.1-11.1,7.8-14.6,13.8c-3.3,5.6-5,11.5-4.9,18c0,1.2,0.3,2.4,0.3,3.5
		c0,0.4-0.4,1.1-0.7,1.1c-4.3,0.5-8.5,0.9-12.8,1.3c-4.3,0.5-8.6,1-12.9,1.4c-2.5,0.3-4.9,0.5-7.4,0.7c-3,0.2-6,0.4-8.9,0.6
		c-0.3-0.6-0.6-1.1-0.9-1.5c-0.2-2-0.4-4-0.6-6c10.1,0,20.3-0.1,30.4-0.1c0.6,0,1.2,0,1.7,0c0.6-2.8,1.1-5.5,1.9-8.1
		c3.2-9.9,8.1-18.7,16.9-24.7c4.1-2.8,8.7-3.9,13.7-2.8C532.8,228.5,533.9,228.6,535,228.9z"/>
	<path class="st2" d="M410.7,413.4c1.2,1.5,2.4,3.1,3.7,4.5c5.3,6,10.6,11.9,15.9,17.8c1.9,2.1,3.8,4.2,5.7,6.4
		c-1.7,1.8-3.4,3.5-4.9,5.4c-4.3,5.3-6.7,11.4-7.6,18.1c-1.1,7.5,0,14.8,2.4,21.8c1,2.9,2.5,5.6,3.8,8.4c0.2,0.5,0.4,1.1,0.6,1.6
		c-5.6-2.9-10-6.9-11.8-13.2c-1.6-5.6-1.2-11.2-0.1-16.9c1.5-7.9,4.5-15.3,8.6-22.2c0.4-0.7,0.7-1.2-0.1-1.9
		c-7.7-7.7-15.5-15.4-23.2-23.1c-0.1-0.1-0.2-0.1-0.3-0.2c0.5-0.6,1-1.2,1.6-1.8C407,416.6,408.9,415,410.7,413.4z"/>
	<path class="st3" d="M376.7,342.6c9.5,9.5,19,19,28.6,28.5c1.9,1.9,3.9,3.9,5.8,5.8c-1.1,1.5-2,3.1-3.2,4.5
		c-4.7,5-9.4,9.9-14.2,14.8c-0.2,0.2-0.4,0.3-0.6,0.4c-0.5-0.3-1-0.6-1.4-0.9c-1.1-1-2.2-2-3.4-3c-4.9-4.3-10-8.6-14.8-13
		c-4.2-3.9-8.3-8.1-12.4-12c-1.4-1.3-3-2.4-4.5-3.6c0.2-0.2,0.3-0.4,0.5-0.6c7.1-5.9,13.3-12.5,18.6-20
		C375.9,343.2,376.3,342.9,376.7,342.6z"/>
	<path class="st2" d="M271.6,179.4c0-2,0.1-4.1,0.1-6.1c0-14.3,0-28.6,0-42.9c3.5-0.3,7-0.7,10.5-0.9c2.9-0.2,5.8-0.1,8.7-0.1
		c2.4,0,4.8,0,7.2,0c-0.1,0.9-0.3,1.7-0.3,2.6c0.1,2.1,0.4,4.2,0.6,6.3c0.3,4.2,0.5,8.4,0.6,12.6c0.2,5.4,0.5,10.8,0.6,16.1
		c0.1,3.7,0,7.4,0,11.1c-0.3,0-0.5,0-0.8,0c-5.9,0-11.8-0.1-17.7,0.1C278,178.3,274.8,179,271.6,179.4z"/>
	<path class="st3" d="M442.6,299.7c-16.3,0-32.5,0-48.8,0c0.1-1.3,0.3-2.6,0.4-3.8c0-0.2,0.1-0.4,0.1-0.6c0.3-3,0.7-6.1,0.7-9.1
		c0.1-3.9-0.1-7.9-0.2-11.8c2.2,0.1,4.3,0.3,6.5,0.3c5.1,0,10.3-0.2,15.4-0.3c3,0,5.9,0.1,8.9,0c5.9-0.2,11.9-0.6,17.8-0.9
		c-0.1,7.4-0.1,14.8-0.3,22.2C443.1,296.9,442.8,298.3,442.6,299.7z"/>
	<path class="st3" d="M186.5,300c-16.2,0-32.4,0.1-48.6,0.1c-0.3-2.1-0.8-4.2-0.9-6.3c-0.1-6-0.1-12-0.1-18
		c5.2-0.2,10.4-0.4,15.5-0.6c5.5-0.2,11.1-0.5,16.6-0.6c5.5-0.2,11-0.2,16.5-0.3c-0.1,1.1-0.2,2.2-0.2,3.3c-0.2,6.3-0.1,12.7,0.9,19
		C186.4,297.7,186.4,298.8,186.5,300z"/>
	<path class="st3" d="M307.6,386.4c0,16.2,0.1,32.4,0.1,48.6c-2.1,0.3-4.3,0.8-6.4,0.9c-6.2,0.1-12.3,0.1-18.5,0.1
		c0-16.2,0-32.4,0-48.5c7.2,0.3,14.3,0.3,21.4-0.8C305.3,386.5,306.4,386.5,307.6,386.4z"/>
	<path class="st3" d="M409.8,187.1c-7.1,7.1-14.1,14.2-21.2,21.2c-4.3,4.3-8.5,8.6-12.8,12.9c-0.4-0.3-0.9-0.5-1.2-0.9
		c-4.4-6.1-9.6-11.4-15.1-16.6c0.2-0.4,0.3-0.8,0.6-1.1c3-3.2,6-6.5,9-9.7c4-4.2,8-8.4,12-12.7c1.8-2,3.6-4,5.4-6
		c1.9-2.1,4-4.1,6-6.1c0.5,0.4,1.1,0.7,1.5,1.1c5.1,5.4,10.2,10.8,15.2,16.2C409.5,186,409.6,186.6,409.8,187.1z"/>
	<path class="st3" d="M195.8,162.3c11.4,11.3,22.8,22.7,34.2,34c-0.4,0.5-0.6,1-1.1,1.4c-3.5,3-7.2,5.8-10.6,8.9
		c-2.8,2.5-5.2,5.3-7.8,7.9c-0.3-0.3-0.6-0.6-0.8-0.9c-3.9-5-7.8-10-11.6-15.1c-4.8-6.4-9.5-12.9-14.2-19.3c-1-1.4-1.7-2.9-2.6-4.4
		c4.4-4,8.8-8,13.3-12C194.8,162.4,195.4,162.4,195.8,162.3z"/>
	<path class="st3" d="M229,368.2c-5.6,5.7-11.2,11.4-16.9,17c-5.7,5.8-11.5,11.6-17.2,17.3c-0.4-0.1-0.9-0.2-1.2-0.5
		c-4.9-4.5-9.7-9-14.6-13.5c0.2-0.3,0.3-0.7,0.5-0.9c1.6-1.8,3.2-3.5,4.9-5.2c4.6-4.9,9.3-9.7,14-14.6c4.4-4.5,8.7-9,13.1-13.5
		c0.3-0.3,0.8-0.5,1.3-0.8c0.1,0.1,0.3,0.2,0.4,0.3c4.6,4.9,9.5,9.4,14.9,13.3C228.5,367.4,228.7,367.8,229,368.2z"/>
	<path class="st2" d="M212.8,353.5c-0.4,0.3-0.9,0.5-1.3,0.8c-4.4,4.5-8.8,8.9-13.1,13.5c-4.7,4.8-9.3,9.7-14,14.6
		c-1.6,1.7-3.3,3.5-4.9,5.2c-0.2,0.2-0.3,0.6-0.5,0.9c-2.9-3.3-5.9-6.7-8.8-10.1c-0.3-0.4-0.4-0.9-0.6-1.4c2.8-2.8,5.7-5.6,8.5-8.4
		c8.2-8.2,16.4-16.5,24.6-24.7c0.3-0.3,0.6-0.7,0.9-1c0.3,0.2,0.8,0.3,1,0.6C207.5,346.9,210.2,350.2,212.8,353.5z"/>
	<path class="st2" d="M181.3,174.7c0.8,1.5,1.6,3,2.6,4.4c4.7,6.5,9.4,12.9,14.2,19.3c3.8,5.1,7.8,10.1,11.6,15.1
		c0.3,0.3,0.5,0.6,0.8,0.9c-1.4,1.8-2.8,3.7-4.2,5.5c-0.5,0.6-1,1.1-1.6,1.6c-5.1-5.1-10.2-10.3-15.4-15.4
		c-6.3-6.3-12.6-12.5-18.9-18.8c0.8-1.2,1.5-2.4,2.4-3.5C175.6,180.8,178.4,177.7,181.3,174.7z"/>
	<path class="st2" d="M282.7,387.4c0,16.2,0,32.4,0,48.5c-3.6-0.3-7.3-0.6-10.9-0.9c0-15.6,0-31.1-0.1-46.7c0-0.8,0-1.6,0-2.3
		C275.4,386.5,279.1,387,282.7,387.4z"/>
	<path class="st2" d="M392.5,168.3c-2,2-4,4-6,6.1c-1.8,2-3.6,4-5.4,6c-4,4.2-8,8.4-12,12.7c-3,3.2-6,6.4-9,9.7
		c-0.3,0.3-0.4,0.7-0.6,1.1c-2.5-2-5-3.9-7.5-5.9c-0.6-0.5-1.2-1.1-1.8-1.6c6.3-6.3,12.7-12.6,19-18.9c4.5-4.5,9-9.1,13.5-13.6
		c0.6-0.6,1.2-1.3,1.8-1.9c1.8,1.3,3.6,2.7,5.4,4.1C390.8,166.6,391.6,167.5,392.5,168.3z"/>
	<path class="st2" d="M185.6,274.3c-5.5,0.1-11,0.2-16.5,0.3c-5.5,0.2-11.1,0.4-16.6,0.6c-5.2,0.2-10.4,0.4-15.5,0.6
		c0.3-3.8,0.6-7.7,0.9-11.5c15.7,0,31.3,0,47-0.1c0.7,0,1.4,0,2,0C186.5,267.6,186,270.9,185.6,274.3z"/>
	<path class="st2" d="M443.5,273.3c-5.9,0.3-11.9,0.7-17.8,0.9c-3,0.1-5.9,0-8.9,0c-5.1,0.1-10.3,0.2-15.4,0.3
		c-2.2,0-4.3-0.2-6.5-0.3c-0.4-3.3-0.8-6.6-1.3-10c1.7-0.1,3.2-0.2,4.7-0.3c7,0,14.1,0,21.1,0c0.6,0,1.1,0.1,1.7,0.1
		c2.4,0,4.7,0,7.1,0c4.8,0,9.6-0.1,14.4-0.1C442.9,267.1,443.2,270.2,443.5,273.3z"/>
	<path class="st3" d="M299.6,178.1c0-3.7,0.1-7.4,0-11.1c-0.1-5.4-0.4-10.8-0.6-16.1c-0.2-4.2-0.4-8.4-0.6-12.6
		c-0.1-2.1-0.4-4.2-0.6-6.3c-0.1-0.9,0.2-1.7,0.3-2.6c0.1,0,0.2,0,0.3,0c0.4,0,0.8,0,1.2,0c0.5,0.1,1,0.1,1.5,0.2
		c0.5,0.1,1,0.1,1.6,0.2c1,0.1,2.1,0.1,3.1,0.2c0.3,0.1,0.7,0.2,1,0.3c0.1,0,0.2,0,0.3,0c0,15.9,0,31.7,0,47.6c0,0.4,0,0.7-0.1,1.1
		C304.6,178.7,302.1,178.4,299.6,178.1z"/>
	<path class="st2" d="M356.5,364.1c1.5,1.2,3.1,2.3,4.5,3.6c4.2,4,8.2,8.1,12.4,12c4.8,4.4,9.9,8.7,14.8,13c1.1,1,2.2,2,3.4,3
		c0.4,0.4,0.9,0.6,1.4,0.9c-1.9,1.7-3.9,3.4-5.8,5c-0.4,0.3-0.9,0.4-1.4,0.6c-3.7-3.7-7.4-7.5-11.1-11.2
		c-7.1-7.1-14.3-14.3-21.4-21.4c-0.5-0.5-1.1-1-1.6-1.5c0.2-0.3,0.2-0.7,0.5-0.9C353.6,366.2,355.1,365.2,356.5,364.1z"/>
</g>
</svg>
